<svg width="28" height="28" viewBox="0 0 28 28" fill="none" xmlns="http://www.w3.org/2000/svg">
<path d="M3.07661 14C3.07661 7.97731 7.97731 3.07661 14 3.07661C20.0227 3.07661 24.9234 7.97731 24.9234 14C24.9234 20.0227 20.0227 24.9234 14 24.9234C7.97731 24.9234 3.07661 20.0227 3.07661 14Z" stroke="#9CA3AF" stroke-width="0.903226"/>
<path d="M12.4927 18.6454L12.4926 18.6455C12.4536 18.692 12.4051 18.7295 12.3503 18.7556C12.2964 18.7812 12.2377 18.7952 12.178 18.7965H12.1677C12.1676 18.7965 12.1675 18.7965 12.1675 18.7965C12.1082 18.7965 12.0496 18.784 11.9954 18.7598C11.9412 18.7357 11.8927 18.7004 11.853 18.6563L11.8529 18.6562L8.70294 15.1562L8.70303 15.1561L8.69585 15.1485C8.65714 15.1074 8.62703 15.0591 8.60728 15.0062C8.58754 14.9533 8.57856 14.8971 8.58088 14.8407C8.58319 14.7843 8.59675 14.729 8.62076 14.6779L8.21207 14.4857L8.62076 14.6779C8.64477 14.6268 8.67875 14.5811 8.72069 14.5433C8.76263 14.5056 8.8117 14.4766 8.865 14.4581C8.91831 14.4396 8.97478 14.4319 9.03108 14.4355C9.0874 14.4392 9.14241 14.454 9.19291 14.4792C9.2434 14.5044 9.28835 14.5394 9.32511 14.5822L9.32502 14.5823L9.33205 14.5901L11.8088 17.342L12.1562 17.728L12.4903 17.3304L19.192 9.35383C19.2646 9.27088 19.3668 9.21953 19.4768 9.21077C19.5877 9.20193 19.6976 9.23708 19.7828 9.30862C19.8679 9.38017 19.9215 9.48235 19.932 9.59309C19.9423 9.70295 19.9094 9.81246 19.8402 9.89835L12.4927 18.6454Z" stroke="#9CA3AF" stroke-width="0.903226"/>
</svg>
