<svg width="156" height="156" viewBox="0 0 156 156" fill="none" xmlns="http://www.w3.org/2000/svg">
<path fill-rule="evenodd" clip-rule="evenodd" d="M130.739 82.45L71.6279 101.117L68.8174 92.2166L127.928 73.5499L130.739 82.45Z" fill="#EC8007"/>
<path fill-rule="evenodd" clip-rule="evenodd" d="M140.788 29.6142L136.899 42.0586L132.003 45.3123L122.439 44.4015L126.05 57.2973L120.081 62.9827L98.223 55.6969V64.7778H88.8896V49.2222L95.032 44.795L114.692 51.3484L111.618 40.3694L116.554 34.4655L129.12 35.6622L131.88 26.8303L140.788 29.6142Z" fill="#EC8007"/>
<path fill-rule="evenodd" clip-rule="evenodd" d="M25.1117 48.1334L34.3077 43.2288L29.9156 34.9935L18.2489 41.2158L15.7783 45.3334L15.7783 58.5556L18.7536 62.905L32.7536 68.3494L36.1364 59.6507L25.1117 55.3633L25.1117 48.1334Z" fill="#BBBBBB"/>
<path fill-rule="evenodd" clip-rule="evenodd" d="M54.7701 23.2834L70.3257 38.0612L71.7782 41.4445L71.7782 85.0001H62.4448L62.4448 43.4479L48.3418 30.05L54.7701 23.2834Z" fill="#EC8007"/>
<path d="M103.469 104.247L52.5088 53.2869C51.703 52.4811 50.3328 52.7867 49.9458 53.8586L21.5536 132.483C21.1088 133.715 22.2922 134.911 23.5288 134.48L102.881 106.816C103.964 106.438 104.28 105.058 103.469 104.247Z" fill="#EC8007"/>
<path fill-rule="evenodd" clip-rule="evenodd" d="M85.2852 27.1982L80.6185 36.5315L72.2705 32.3575L76.9372 23.0242L85.2852 27.1982Z" fill="#EC8007"/>
<path fill-rule="evenodd" clip-rule="evenodd" d="M119.507 16.3092L114.84 25.6426L106.492 21.4686L111.159 12.1353L119.507 16.3092Z" fill="#DFFF00"/>
<path fill-rule="evenodd" clip-rule="evenodd" d="M52.6182 42.7537L47.9515 52.087L39.6035 47.913L44.2702 38.5797L52.6182 42.7537Z" fill="#DFFF00"/>
<path fill-rule="evenodd" clip-rule="evenodd" d="M145.952 69.1982L141.285 78.5315L132.938 74.3575L137.604 65.0242L145.952 69.1982Z" fill="#EC8007"/>
<path fill-rule="evenodd" clip-rule="evenodd" d="M144.396 103.42L139.73 112.754L131.382 108.58L136.049 99.2464L144.396 103.42Z" fill="#BBBBBB"/>
<path fill-rule="evenodd" clip-rule="evenodd" d="M125.729 101.865L121.063 111.198L112.715 107.024L117.382 97.6909L125.729 101.865Z" fill="#DFFF00"/>
</svg>
