<svg width="25" height="25" viewBox="0 0 25 25" fill="none" xmlns="http://www.w3.org/2000/svg">
<g id="&#240;&#159;&#166;&#134; icon &#34;User&#34;">
<g id="Vector">
<path d="M17.4049 14.8438C15.812 14.8438 15.0461 15.625 12.4321 15.625C9.818 15.625 9.05765 14.8438 7.45924 14.8438C3.34112 14.8438 0 17.7832 0 21.4062V22.6562C0 23.9502 1.19326 25 2.66401 25H22.2001C23.6709 25 24.8641 23.9502 24.8641 22.6562V21.4062C24.8641 17.7832 21.523 14.8438 17.4049 14.8438ZM22.2001 22.6562H2.66401V21.4062C2.66401 19.082 4.81742 17.1875 7.45924 17.1875C8.26954 17.1875 9.5849 17.9688 12.4321 17.9688C15.3014 17.9688 16.589 17.1875 17.4049 17.1875C20.0467 17.1875 22.2001 19.082 22.2001 21.4062V22.6562ZM12.4321 14.0625C16.8443 14.0625 20.4241 10.9131 20.4241 7.03125C20.4241 3.14941 16.8443 0 12.4321 0C8.01979 0 4.44002 3.14941 4.44002 7.03125C4.44002 10.9131 8.01979 14.0625 12.4321 14.0625ZM12.4321 2.34375C15.368 2.34375 17.7601 4.44824 17.7601 7.03125C17.7601 9.61426 15.368 11.7188 12.4321 11.7188C9.4961 11.7188 7.10404 9.61426 7.10404 7.03125C7.10404 4.44824 9.4961 2.34375 12.4321 2.34375Z" fill="black" fill-opacity="0.4"/>
<path d="M22.2001 23.1562H22.7001V22.6562V21.4062C22.7001 18.7476 20.2607 16.6875 17.4049 16.6875C17.1312 16.6875 16.8435 16.7519 16.5608 16.8258C16.4343 16.8589 16.3131 16.8925 16.1872 16.9275C16.0014 16.9792 15.8054 17.0336 15.5675 17.093C14.8154 17.2807 13.8175 17.4688 12.4321 17.4688C11.058 17.4688 10.0586 17.2808 9.3024 17.0929C9.06355 17.0335 8.86618 16.979 8.67919 16.9274C8.55242 16.8923 8.43042 16.8586 8.3035 16.8257C8.01986 16.7519 7.73142 16.6875 7.45924 16.6875C4.60338 16.6875 2.16401 18.7476 2.16401 21.4062V22.6562V23.1562H2.66401H22.2001ZM12.4321 16.125C13.7979 16.125 14.6893 15.9193 15.4328 15.7168C15.5243 15.6919 15.6123 15.6675 15.6977 15.6438C16.3058 15.475 16.7788 15.3438 17.4049 15.3438C21.309 15.3438 24.3641 18.1176 24.3641 21.4062V22.6562C24.3641 23.6158 23.4568 24.5 22.2001 24.5H2.66401C1.4073 24.5 0.5 23.6158 0.5 22.6562V21.4062C0.5 18.1176 3.55516 15.3438 7.45924 15.3438C8.08849 15.3438 8.56221 15.4753 9.17062 15.6443C9.25531 15.6678 9.34262 15.6921 9.43331 15.7168C10.1762 15.9192 11.0662 16.125 12.4321 16.125ZM19.9241 7.03125C19.9241 10.5787 16.6303 13.5625 12.4321 13.5625C8.23384 13.5625 4.94002 10.5787 4.94002 7.03125C4.94002 3.48381 8.23384 0.5 12.4321 0.5C16.6303 0.5 19.9241 3.48381 19.9241 7.03125ZM18.2601 7.03125C18.2601 4.11385 15.5821 1.84375 12.4321 1.84375C9.28205 1.84375 6.60404 4.11385 6.60404 7.03125C6.60404 9.94865 9.28205 12.2188 12.4321 12.2188C15.5821 12.2188 18.2601 9.94865 18.2601 7.03125Z" stroke="black" stroke-opacity="0.4"/>
</g>
</g>
</svg>
