<svg width="22" height="25" viewBox="0 0 22 25" fill="none" xmlns="http://www.w3.org/2000/svg">
<path d="M19.5312 12.5H7.42186V7.46585C7.42186 5.53226 8.96971 3.92582 10.9033 3.90629C12.8564 3.88676 14.4531 5.47367 14.4531 7.42191V8.20316C14.4531 8.85257 14.9756 9.37503 15.625 9.37503H17.1875C17.8369 9.37503 18.3593 8.85257 18.3593 8.20316V7.42191C18.3593 3.32035 15.0146 -0.0146003 10.9131 4.80721e-05C6.81151 0.0146965 3.51562 3.3936 3.51562 7.49515V12.5H2.34375C1.0498 12.5 0 13.5498 0 14.8438V22.6563C0 23.9502 1.0498 25 2.34375 25H19.5312C20.8252 25 21.875 23.9502 21.875 22.6563V14.8438C21.875 13.5498 20.8252 12.5 19.5312 12.5Z" fill="black" fill-opacity="0.4"/>
</svg>
