<svg width="24" height="24" viewBox="0 0 24 24" fill="none" xmlns="http://www.w3.org/2000/svg">
<g id="&#236;&#131;&#137;&#236;&#158;&#136;&#235;&#138;&#148; &#234;&#176;&#144;&#236;&#158;&#144;">
<path id="Vector" d="M0.720419 15.379C0.422294 12.2478 2.20729 9.76342 3.72042 8.76217C5.26729 7.73842 5.98917 7.59217 6.33792 7.39529C7.94479 6.49154 9.07542 4.47592 11.2354 2.98904C13.6935 1.29779 17.0554 1.04654 19.1179 2.17717C20.9985 3.20842 22.926 5.45467 22.4104 9.92654C21.8948 14.3984 10.6598 21.7578 8.7323 21.8628C6.8048 21.9678 1.17042 20.1115 0.720419 15.379Z" fill="#B8885A"/>
<path id="Vector_2" d="M13.2452 14.3798C12.362 14.8973 9.04516 18.1841 5.23891 18.0941C1.43266 18.0041 0.847656 16.1648 0.847656 16.1648C0.847656 16.1648 1.39328 19.371 4.01828 21.2704C6.98828 23.4191 10.1383 22.5735 11.057 22.3673C12.4202 22.0616 13.6239 21.4354 14.8295 20.781C16.0352 20.1266 20.3214 18.0623 22.0052 14.8129C23.8633 11.2279 23.4208 8.35539 22.4927 6.26664C21.5102 4.05602 20.552 3.24414 20.552 3.24414C20.552 3.24414 21.4445 7.87352 19.5545 10.4498C16.8733 14.1041 14.1283 13.8623 13.2452 14.3798Z" fill="#875B52"/>
<path id="Vector_3" d="M11.8556 18.219C11.8669 18.4552 12.7088 18.4365 13.32 18.3371C13.9669 18.2321 14.5013 18.2227 14.5913 17.9734C14.6813 17.724 13.695 16.8559 13.1138 16.8859C12.75 16.9065 11.8388 17.874 11.8556 18.219ZM16.2356 18.6746C16.3613 18.8565 16.8825 18.579 17.0738 18.3296C17.265 18.0802 17.4806 17.5984 17.3081 17.4915C17.1356 17.3846 16.6425 17.3865 16.3988 17.6865C16.1569 17.9884 16.11 18.4927 16.2356 18.6746ZM21.9844 7.17712C21.78 6.81712 21.4144 7.66837 21.3975 7.96274C21.3806 8.25712 21.6019 8.42962 21.8475 8.48212C22.0894 8.53274 22.6406 8.33399 21.9844 7.17712ZM5.45251 20.0771C5.28751 20.3565 5.55938 20.559 5.83501 20.7465C6.05251 20.8946 6.58501 20.9734 6.69001 20.8084C6.79688 20.6434 6.58688 20.4202 6.18938 20.0865C5.91751 19.8596 5.61751 19.7977 5.45251 20.0771Z" fill="#513531"/>
<path id="Vector_4" d="M3.26205 15.7951C3.02767 15.9583 3.21705 16.682 3.24892 16.8208C3.2808 16.9595 4.21455 17.0083 4.3533 16.7945C4.49205 16.5808 4.19955 16.2714 3.9933 16.0558C3.78705 15.842 3.49642 15.632 3.26205 15.7951ZM4.9308 14.1095C5.21955 14.5014 5.74267 14.0308 5.82705 13.6801C5.91705 13.3033 5.60017 13.0576 5.24205 13.2808C4.95517 13.457 4.76205 13.8826 4.9308 14.1095ZM8.6658 6.64889C8.2908 6.49139 8.1483 6.82139 8.00767 7.15514C7.86705 7.48889 7.4133 8.0964 7.6983 8.18077C7.9833 8.26515 8.65455 8.22577 8.82142 7.95389C8.9883 7.68014 9.0408 6.80827 8.6658 6.64889Z" fill="#875B52"/>
<path id="Vector_5" d="M2.2635 14.9022C2.676 15.0878 3.31725 14.2103 3.61162 13.7884C4.04475 13.1678 4.69725 12.384 6.22537 11.4372C8.32162 10.1397 10.5097 10.4659 11.6347 9.48903C12.7597 8.51215 13.4122 6.57528 14.271 5.61528C15.8404 3.86028 17.4697 5.0584 17.6966 4.20903C17.9235 3.35965 16.761 2.63778 15.3885 2.63965C14.0179 2.6434 12.4504 3.14778 11.0254 5.45215C9.60037 7.75653 9.246 8.46153 7.92412 8.87778C6.60225 9.2959 4.95975 9.84715 3.37725 11.6078C2.49787 12.5865 1.57537 14.5928 2.2635 14.9022Z" fill="#D9AC82"/>
<path id="Vector_6" d="M15.519 6.34125C15.5997 6.94125 16.4247 7.2675 16.9103 7.27312C17.3659 7.27875 17.694 6.9825 17.6884 6.68062C17.6828 6.31875 17.094 6.15187 16.8634 6.06187C16.4115 5.8875 16.3065 5.50875 15.8847 5.64375C15.5022 5.7675 15.5078 6.24937 15.519 6.34125Z" fill="#875B52"/>
</g>
</svg>
