<svg width="20" height="20" viewBox="0 0 20 20" fill="none" xmlns="http://www.w3.org/2000/svg">
<g id="Group 752">
<ellipse id="Ellipse 37" cx="9.88" cy="9.69855" rx="9.88" ry="9.69855" fill="white"/>
<path id="Vector" d="M9.76859 13.3136L13.9204 9.23804C13.2219 8.95175 12.5875 8.53347 12.0533 8.00698C11.5167 7.4825 11.0904 6.85956 10.7987 6.17363L6.64684 10.2492C6.32294 10.5672 6.1607 10.7264 6.02149 10.9017C5.85707 11.1085 5.71608 11.3322 5.60102 11.569C5.50391 11.7696 5.43149 11.9834 5.28666 12.4099L4.52208 14.6599C4.48689 14.7629 4.48167 14.8735 4.50701 14.9793C4.53234 15.085 4.58723 15.1818 4.6655 15.2586C4.74376 15.3354 4.84231 15.3893 4.95006 15.4142C5.05781 15.439 5.17049 15.4339 5.27543 15.3994L7.56748 14.6488C8.00254 14.5067 8.21979 14.4356 8.42412 14.3402C8.66551 14.2273 8.89342 14.089 9.10393 13.9275C9.28245 13.7908 9.44468 13.6316 9.76859 13.3136ZM15.0724 8.10728C15.4863 7.70091 15.7189 7.14976 15.7189 6.57507C15.7189 6.00038 15.4863 5.44923 15.0724 5.04286C14.6584 4.6365 14.0969 4.4082 13.5115 4.4082C12.926 4.4082 12.3646 4.6365 11.9506 5.04286L11.4527 5.53165L11.474 5.59282C11.7194 6.28203 12.1209 6.90758 12.6484 7.42232C13.1884 7.95557 13.848 8.35751 14.5744 8.59606L15.0724 8.10728Z" fill="#FFCC70"/>
</g>
</svg>
