<svg width="432" height="303" viewBox="0 0 432 303" fill="none" xmlns="http://www.w3.org/2000/svg">
<g clip-path="url(#clip0_360_4396)">
<path d="M210.222 112.624L334.879 44.9991C326.576 76.7003 318.291 108.407 309.988 140.108C276.739 130.949 243.483 121.777 210.222 112.624Z" fill="#BDD535"/>
<path d="M304.756 109.594C311.43 105.974 313.905 97.6291 310.284 90.9555C306.664 84.282 298.319 81.8068 291.646 85.4271C284.972 89.0474 282.497 97.3923 286.117 104.066C289.738 110.739 298.082 113.215 304.756 109.594Z" fill="#AC2324"/>
<path d="M344.851 13.3349C333.742 19.1102 322.667 24.977 311.625 30.9045C312.319 26.9162 313.02 22.9402 313.615 18.9429C314.102 15.5854 308.836 15.4588 308.341 18.7733C307.585 23.8629 306.711 28.938 305.806 34.014C264.071 56.4506 222.683 79.6723 181.031 102.205C180.703 102.352 180.414 102.571 180.188 102.851C179.489 103.56 179.366 104.49 179.642 105.346C179.8 106.013 180.227 106.598 180.95 106.976C181.063 107.04 181.152 107.117 181.271 107.162C181.271 107.162 181.284 107.187 181.296 107.18C204.778 115.122 228.257 121.353 252.082 127.931C262.217 130.724 272.314 133.82 282.393 136.769C286.559 137.995 293.79 141.453 300.124 142.853C309.191 158.787 317.889 174.906 326.343 191.156C318.947 195.294 284.743 213.755 294.096 226.567C301.436 236.623 330.823 220.602 338.484 216.98C350.632 211.238 362.027 204.051 372.621 195.792C376.9 192.45 388.756 183.129 387.032 176.276C383.18 160.983 347.968 179.206 339.616 183.579C331.267 167.554 322.695 151.665 313.765 135.955C314.586 133.735 315.188 131.43 315.81 129.711C320.139 117.69 323.737 105.421 327.143 93.1159C334.236 67.52 340.325 41.6365 348.628 16.3893C349.357 14.1724 346.818 12.2995 344.845 13.3227L344.851 13.3349ZM188.629 104.082C227.33 83.0867 265.823 61.5614 304.589 40.6569C303.304 47.4935 302.02 54.33 300.747 61.16C270.035 77.6636 238.247 92.2392 208.509 110.538C201.88 108.45 195.25 106.3 188.622 104.07L188.629 104.082ZM340.325 196.291C341.871 199.315 346.505 196.801 344.959 193.777C344.02 191.93 343.021 190.117 342.064 188.265C349.919 184.192 358.002 180.451 366.558 178.103C368.73 177.505 374.963 175.129 377.16 176.198C383.608 179.342 377.011 184.868 374.496 187.41C364.077 197.93 349.279 206.052 335.958 212.352C327.47 216.36 314.072 224.052 304.326 223.686C294.055 223.307 302.755 214.395 307.057 210.601C313.65 204.779 321.146 200.1 328.797 195.824C329.702 197.578 330.648 199.294 331.541 201.056C333.087 204.08 337.722 201.566 336.175 198.542C326.653 179.918 316.72 161.549 306.421 143.346C307.227 143.239 307.987 143.078 308.669 142.771C309.442 142.43 310.09 141.89 310.694 141.295C320.953 159.425 330.854 177.733 340.337 196.284L340.325 196.291ZM316.335 111.4C315.013 115.65 313.642 119.896 312.189 124.107C309.373 132.261 307.136 136.646 297.646 135.796C289.586 135.065 279.992 130.723 272.1 128.535C263.572 126.158 255.271 123.187 246.644 121.177C236.018 118.698 225.577 115.804 215.213 112.649C242.513 96.2531 271.403 82.7316 299.499 67.8039C298.692 72.3085 297.997 76.8156 297.301 81.3226C288.376 81.485 280.627 90.5881 281.002 99.4135C281.311 106.438 287.094 111.482 293.652 113.121C293.193 117.139 292.318 121.084 291.965 125.122C291.665 128.504 296.932 128.662 297.239 125.292C297.584 121.383 298.401 117.564 298.871 113.682C299.21 113.671 299.549 113.659 299.894 113.629C307.823 112.845 314.37 105.666 314.991 97.8081C315.649 89.5844 310.225 82.3359 302.592 81.4361C303.442 75.8245 304.372 70.2165 305.396 64.6361C314.969 59.4433 324.429 54.0443 333.685 48.2691C330.764 58.9772 327.985 69.7176 325.12 80.4423C322.341 90.8059 319.506 101.153 316.328 111.388L316.335 111.4ZM298.567 108.461C293.623 108.552 287.179 105.531 286.36 100.26C285.45 94.4413 290.525 87.3854 296.487 86.7106C296.433 87.1324 296.349 87.5552 296.283 87.9835C295.833 91.3521 301.106 91.4909 301.557 88.1531C301.637 87.607 301.736 87.0663 301.81 86.508C313.284 86.8471 311.38 108.23 298.567 108.461ZM335.812 40.7559C326.302 46.8731 316.529 52.5358 306.638 57.9801C307.929 51.1557 309.239 44.3368 310.493 37.5013C320.868 31.9358 331.269 26.4188 341.703 20.9625C339.632 27.5351 337.684 34.1344 335.812 40.7559Z" fill="#333333"/>
<path d="M237.301 108.298C234.029 107.419 232.519 112.478 235.802 113.35C241.386 114.844 246.858 116.68 252.193 118.873C255.324 120.158 256.804 115.1 253.692 113.821C248.344 111.634 242.885 109.791 237.301 108.298Z" fill="#333333"/>
<path d="M259.748 116.33C256.763 117.949 259.277 122.583 262.262 120.964C265.246 119.345 262.732 114.711 259.748 116.33Z" fill="#333333"/>
</g>
<g clip-path="url(#clip1_360_4396)">
<path d="M140.722 271.785C105.624 260.195 70.5262 248.606 35.4252 237.027C37.6823 216.758 39.9395 196.488 42.1934 176.229C42.8498 176.22 43.5866 176.228 44.4168 176.244C44.4168 176.244 48.5772 176.332 52.9222 176.866C68.0944 178.745 93.72 190.369 93.72 190.369C124.889 204.51 122.457 205.841 131.993 207.917C136.989 209.009 146.044 210.466 158.887 214.792C162.783 216.1 165.959 217.32 168.062 218.154C158.955 236.033 149.838 253.909 140.731 271.788L140.722 271.785Z" fill="#D39413"/>
<path d="M204.427 151.925C204.404 151.864 204.356 151.816 204.33 151.764C204.297 151.636 204.294 151.517 204.232 151.378C201.181 144.978 188.035 141.473 182.186 139.07C165.092 132.043 147.545 126.067 129.956 120.409C112.599 114.828 95.0915 109.508 77.3489 105.322C71.2545 103.889 57.2252 98.6132 51.1733 102.372C48.4397 104.065 47.6782 108.188 46.8009 111.039C44.389 118.895 42.6985 127 40.9595 135.025C35.7774 158.896 31.3551 182.932 27.0293 206.968C25.0251 218.132 23.0884 229.319 21.155 240.496C19.174 251.947 21.8208 253.957 32.1 258.584C49.3241 266.319 67.1527 272.646 85.1789 278.244C93.5255 280.839 101.917 283.267 110.34 285.598C117.81 287.668 127.877 292.418 135.643 292.227C147.029 291.944 154.179 272.368 158.664 263.878C167.792 246.617 175.042 228.457 182.991 210.646C188.134 199.125 193.513 187.767 198.064 175.996C200.362 170.043 206.761 158.646 204.424 151.935L204.427 151.925ZM193.749 174.56C190.771 182.283 187.531 189.887 184.082 197.412C178.081 210.494 172.44 223.717 166.596 236.873C160.24 251.157 153.521 269.524 142.954 281.378C135.569 289.661 129.788 286.176 120.148 283.572C112.436 281.487 104.744 279.343 97.0774 277.091C81.7085 272.563 66.451 267.6 51.5066 261.786C44.7945 259.173 38.0789 256.441 31.5458 253.383C23.7596 249.74 24.6877 246.605 25.8887 239.561C27.5683 229.737 29.2865 219.925 31.0369 210.114C34.9881 188.024 39.0649 165.943 43.6599 143.979C45.2392 136.406 46.87 128.839 48.7261 121.335C49.4521 118.423 50.5274 108.839 53.1058 106.806C57.5239 103.322 72.5641 108.846 77.6252 110.067C92.1324 113.57 106.471 117.812 120.707 122.266C137.729 127.597 154.655 133.282 171.306 139.67C177.821 142.164 184.347 144.726 190.648 147.708C192.909 148.776 198.668 150.742 200.051 153.3C201.472 158.765 195.5 169.971 193.723 174.573L193.749 174.56Z" fill="#333333" stroke="#323333" stroke-width="1.33327" stroke-miterlimit="10"/>
<path d="M55.1294 137.474C55.6572 133.863 56.1755 130.25 56.7001 126.649C57.348 122.156 57.7045 115.755 63.9365 118.102C66.6805 119.137 68.0977 114.812 65.3634 113.78C51.3985 108.505 51.8278 128.718 50.5953 137.252C50.175 140.148 54.7219 140.363 55.139 137.477L55.1294 137.474Z" fill="#333333"/>
<path d="M72.1787 120.202C74.9611 121.12 76.388 116.799 73.6057 115.88C70.8233 114.961 69.3964 119.283 72.1787 120.202Z" fill="#333333"/>
<path d="M158.672 211.322C145.195 208.266 133.025 205.213 120.307 199.405C107.299 193.47 94.7389 186.309 81.1067 181.519C72.9654 178.659 64.4718 176.412 56.1204 174.416C52.1604 173.462 46.0284 171.201 42.4789 172.217C38.2768 173.424 38.9116 177.472 38.4627 180.519C37.5045 186.925 36.0634 193.204 34.9958 199.584C32.8956 212.175 32.9233 225.233 32.1268 238.093C32.0743 238.933 32.7805 239.52 33.6467 239.785C33.7239 239.81 33.7691 239.868 33.8464 239.894C68.7029 252.7 104.296 264.346 139.81 275.225C140.696 275.496 141.873 275.403 142.264 274.803C152.519 258.836 160.858 241.529 169.295 224.737C173.521 216.322 171.849 214.312 158.701 211.332L158.672 211.322ZM164.948 223.302C161.21 230.73 156.975 237.974 153.104 245.348C150.136 250.994 147.326 256.714 144.339 262.354C143.568 263.814 140.364 271.505 138.82 271.575C137.102 271.651 132.785 269.571 131.068 268.994C99.5447 258.424 67.8564 248.904 36.6072 237.503C37.5982 221.49 38.4223 205.691 41.3352 190.087C41.8936 187.098 41.4004 181.81 43.1474 179.31C46.76 174.145 52.1495 176.675 58.6467 178.316C67.6777 180.591 76.8573 183.096 85.5024 186.637C100.454 192.753 114.243 200.93 129.377 206.721C135.941 209.231 142.587 211.233 149.415 212.683C152.979 213.442 156.947 213.852 160.419 214.987C167.284 217.233 166.914 219.426 164.967 223.308L164.948 223.302Z" fill="#333333"/>
<path d="M93.1597 236.941C118.039 245.156 144.395 233.079 152.027 209.965C159.659 186.851 145.677 161.454 120.798 153.238C95.9183 145.023 69.5624 157.101 61.9303 180.215C54.2983 203.329 68.2801 228.726 93.1597 236.941Z" fill="white" stroke="#323333" stroke-width="6.66633" stroke-miterlimit="10"/>
<path d="M138.731 206.882C137.093 211.842 134.912 215.754 131.832 219.143C131.306 219.731 130.806 220.37 130.177 220.816C128.15 222.248 125.724 223.334 123.65 221.599C121.648 219.908 123.409 217.788 124.318 216.104C125.163 214.55 126.35 213.13 127.618 211.887C130.734 208.809 133.287 205.524 133.677 200.903C133.848 198.891 134.912 197.001 137.3 197.232C139.8 197.479 139.854 199.619 139.933 201.618C140.006 203.733 138.94 205.536 138.728 206.892L138.731 206.882Z" fill="#FEFEFE" stroke="#323333" stroke-width="3.9998" stroke-miterlimit="10"/>
<path d="M139.794 181.405C140.589 185.227 139.618 188.198 136.103 188.849C132.093 189.605 130.594 186.162 129.849 183.064C129.127 180.059 130.226 176.894 133.419 176.244C137.243 175.469 138.981 178.445 139.787 181.392L139.794 181.405Z" stroke="#323333" stroke-width="3.9998" stroke-miterlimit="10"/>
</g>
<defs>
<clipPath id="clip0_360_4396">
<rect width="191.814" height="189.975" fill="white" transform="translate(172 91.4646) rotate(-28.4792)"/>
</clipPath>
<clipPath id="clip1_360_4396">
<rect width="166.152" height="165.086" fill="white" transform="translate(51.7617 94) rotate(18.2729)"/>
</clipPath>
</defs>
</svg>
