<svg width="322" height="326" viewBox="0 0 322 326" fill="none" xmlns="http://www.w3.org/2000/svg">
<g clip-path="url(#clip0_472_212)">
<path d="M223.189 30.9876C234.602 28.6071 247.295 32.4077 255.215 40.5776C261.386 46.9454 269.593 55.1772 279.755 54.4873C290.009 53.7938 297.562 47.7843 307.894 54.9716C314.589 59.63 317.678 68.8164 314.023 75.7916C313.284 77.2076 312.294 78.5277 311.768 80.0227C311.016 82.1396 311.239 84.4521 310.873 86.6587C309.484 95.1317 301.822 96.3627 294.744 98.8196C286.962 101.517 285.142 104.593 280.933 111.092C276.438 118.038 265.329 119.128 257.832 114.968C250.326 110.806 246.035 102.86 243.96 94.9159C242.969 91.1406 242.421 87.0271 244.098 83.487C245.559 80.4072 251.894 76.1251 255.697 76.809C257.983 77.22 259.905 78.6253 261.742 79.9849C261.165 81.4198 260.573 82.9336 260.781 84.469C261.475 89.4952 267.815 87.0177 269.176 83.92C270.955 79.8684 265.34 74.4159 262.427 72.2208C259.459 69.9854 256.135 67.8998 252.368 67.4672C243.937 66.5015 237.436 73.7701 232.068 79.8972C226.698 86.0342 218.272 92.2636 210.586 88.8131C199.536 83.8405 201.632 72.8146 186.239 77.2105C181.373 78.5977 176.526 80.6813 171.442 80.2971C166.359 79.913 161.078 75.7535 162.116 71.0693C163.32 72.7429 165.823 73.2033 167.902 72.7618C169.992 72.3123 171.799 71.1493 173.634 70.1138C178.825 67.2055 184.636 65.2646 190.632 64.4167C193.062 64.0794 195.567 63.908 197.797 62.964C205.077 59.9014 200.196 54.6113 200.878 49.3842C202.109 40.0165 214.12 32.8827 223.177 30.9957L223.189 30.9876Z" fill="#323333" stroke="#040000" stroke-width="2.66638" stroke-miterlimit="10"/>
</g>
<g clip-path="url(#clip1_472_212)">
<path d="M214.725 257.737C214.466 258.542 214.237 259.232 214.122 259.807C213.289 263.745 213.289 272.052 218.745 278.175C224.03 284.153 233.019 286.568 245.454 285.418C255.735 284.47 263.001 280.704 266.965 274.265C273.139 264.262 269.894 250.321 268.257 244.86C266.275 250.954 257.832 255.122 257.401 255.323C257.171 255.438 256.884 255.38 256.712 255.208C256.54 255.036 256.482 254.748 256.597 254.518C260.302 247.073 256.138 242.762 250.365 236.783C249.475 235.863 248.584 234.915 247.665 233.937C242.266 228.073 243.271 218.387 244.076 214.161C223.57 235.518 232.875 251.672 234.455 254.116C234.541 254.231 234.627 254.346 234.684 254.461C234.857 254.719 234.799 255.093 234.541 255.294C234.282 255.495 233.909 255.438 233.708 255.179C233.708 255.179 233.622 255.064 233.507 254.863C228.366 247.619 217.941 245.291 214.237 244.688C217.281 249.718 215.73 254.518 214.696 257.766L214.725 257.737Z" fill="#F29138"/>
<path d="M244.363 299.733C260.56 299.388 271.962 293.668 278.28 282.774C288.36 265.383 282.099 241.21 279.572 236.61C276.04 230.114 273.915 218.185 273.11 212.954L268.975 225.371C268.975 225.371 268.889 225.63 268.831 225.774C268.716 226.09 268.372 226.262 268.056 226.148C267.74 226.033 267.568 225.688 267.682 225.371L267.797 224.998C269.75 218.875 266.333 213.615 262.743 208.039C260.129 203.957 257.401 199.76 256.913 195.132C255.965 186.107 266.046 171.217 269.779 166.043C254.271 172.942 234.914 184.957 226.385 204.216C221.847 214.477 222.249 222.669 222.479 224.883C222.479 225.084 222.536 225.285 222.565 225.515C222.594 225.831 222.364 226.148 222.048 226.176C221.732 226.234 221.416 226.004 221.359 225.688C221.359 225.688 221.33 225.486 221.301 225.17C220.038 215.253 213.748 209.045 209.871 206.113C211.508 209.907 212.111 217.984 204.242 234.311C195.397 252.736 194.765 271.017 202.605 283.147C209.843 294.415 224.259 300.135 244.305 299.675L244.363 299.733ZM212.485 243.595C212.6 243.394 212.829 243.279 213.059 243.279C213.576 243.337 224.346 244.515 231.497 250.839C228.854 243.94 226.844 229.424 244.679 211.833C244.88 211.632 245.167 211.603 245.397 211.747C245.626 211.89 245.741 212.178 245.684 212.436C245.655 212.58 242.094 226.119 248.556 233.132C249.446 234.11 250.365 235.058 251.227 235.949C256.482 241.411 261.106 246.182 258.378 253.426C261.307 251.701 267.424 247.505 267.424 242.388C267.424 242.101 267.625 241.842 267.912 241.784C268.199 241.727 268.487 241.899 268.573 242.158C268.889 242.963 276.04 261.819 267.941 274.927C263.748 281.71 256.195 285.677 245.483 286.654C243.444 286.855 241.52 286.942 239.653 286.942C229.773 286.942 222.45 284.268 217.769 279.008C212.025 272.512 211.996 263.745 212.887 259.577C213.03 258.916 213.26 258.169 213.519 257.393C214.639 253.943 216.132 249.229 212.456 244.256C212.312 244.055 212.284 243.796 212.427 243.595H212.485Z" fill="#F5BD3B"/>
<path d="M221.181 218.581C221.779 212.69 223.912 203.769 230.613 194.149C237.763 183.887 250.102 172.843 271.29 163.83L271.299 163.826L271.309 163.823C271.649 163.71 272.057 163.779 272.306 164.112C272.545 164.43 272.545 164.84 272.306 165.159C272.298 165.169 272.282 165.19 272.257 165.223C271.787 165.848 268.259 170.537 264.865 176.352C263.062 179.443 261.3 182.845 260.058 186.117C258.814 189.394 258.101 192.514 258.368 195.049C258.82 199.319 261.423 203.378 263.987 207.328C266.364 210.977 268.83 214.8 269.587 218.924L272.529 210.116C272.529 210.116 272.529 210.116 272.529 210.116C272.658 209.727 273.035 209.542 273.398 209.542H273.41L273.423 209.544C273.812 209.583 274.15 209.863 274.192 210.285L274.194 210.297V210.303C274.194 210.303 274.194 210.303 274.194 210.303C274.194 210.303 274.195 210.314 274.199 210.347C274.203 210.384 274.21 210.438 274.218 210.507C274.236 210.645 274.263 210.845 274.299 211.1C274.37 211.61 274.476 212.338 274.618 213.232C274.902 215.02 275.326 217.473 275.886 220.172C277.01 225.58 278.677 231.942 280.855 235.945C280.855 235.945 280.855 235.945 280.855 235.945L280.635 236.065C283.22 240.779 289.624 265.556 279.314 283.407L221.181 218.581ZM221.181 218.581C217.212 208.183 208.231 203.187 207.575 202.845L207.521 202.816H207.484C207.089 202.656 206.601 202.816 206.403 203.213C206.201 203.618 206.356 204.145 206.773 204.353C206.773 204.353 206.773 204.354 206.775 204.354C206.842 204.395 208.785 205.571 209.326 209.706C209.88 213.946 208.962 221.302 203.012 233.714C193.945 252.586 193.342 271.369 201.448 284.001L201.448 284.002C208.75 295.312 222.837 301.248 242.267 301.248H242.87L242.841 301.219L221.181 218.581ZM226.671 204.374C234.98 185.551 253.721 173.631 269.063 166.708C267.106 169.451 264.002 174.067 261.387 179.086C259.951 181.842 258.659 184.725 257.785 187.49C256.912 190.251 256.451 192.912 256.693 195.216L256.693 195.217C257.18 199.829 259.857 204.009 262.42 208.01C262.467 208.084 262.514 208.158 262.561 208.231L262.562 208.232C266.168 213.804 269.471 218.961 267.588 224.981L267.588 224.982L267.474 225.35C267.314 225.802 267.563 226.282 267.999 226.44C268.451 226.605 268.933 226.357 269.094 225.921C269.125 225.843 269.148 225.773 269.169 225.71C269.191 225.644 269.21 225.586 269.236 225.522L269.239 225.515L269.241 225.508L273.052 214.065C273.477 216.706 274.158 220.503 275.104 224.424C276.179 228.877 277.599 233.51 279.382 236.788C279.991 237.909 280.845 240.256 281.624 243.432C282.402 246.602 283.103 250.581 283.412 254.96C284.031 263.723 283.083 274.058 278.092 282.707C271.859 293.503 260.526 299.169 244.386 299.541C224.381 300 210.072 294.262 202.902 283.127C195.127 271.012 195.701 252.859 204.526 234.477C211.845 219.235 211.873 211.109 210.482 206.922C214.322 210.025 219.905 216.018 221.111 225.256C221.125 225.415 221.14 225.538 221.151 225.626L221.158 225.684L221.164 225.728C221.166 225.744 221.166 225.751 221.167 225.753V225.768L221.171 225.79C221.252 226.235 221.692 226.564 222.151 226.48C222.583 226.402 222.907 226.01 222.873 225.562C222.872 225.444 222.855 225.323 222.837 225.216C222.829 225.168 222.821 225.125 222.814 225.083C222.803 225.023 222.793 224.968 222.785 224.91C222.558 222.72 222.159 214.578 226.671 204.375L226.671 204.374Z" fill="#333333" stroke="#333333" stroke-width="0.5"/>
<path d="M213.45 257.142H213.394L213.338 257.316C213.08 258.121 212.847 258.877 212.7 259.522L212.7 259.522L212.7 259.525C211.8 263.737 211.824 272.597 217.639 279.174L217.639 279.174C222.385 284.535 229.818 287.192 239.71 287.192C241.585 287.192 243.517 287.105 245.564 286.903C256.297 285.921 263.935 281.929 268.211 275.059L268.211 275.058C272.305 268.433 272.536 260.373 271.718 253.897C270.899 247.416 269.025 242.48 268.863 242.067L268.863 242.067L268.859 242.057C268.706 241.713 268.314 241.453 267.918 241.54C267.51 241.623 267.231 241.988 267.231 242.388C267.231 244.847 265.759 247.114 263.88 249.002C262.243 250.647 260.326 251.974 258.897 252.856C259.985 249.45 259.472 246.57 258.064 243.902C256.58 241.092 254.099 238.514 251.487 235.799L251.466 235.778C251.466 235.778 251.466 235.778 251.465 235.777C251.11 235.398 250.75 235.024 250.387 234.647C249.859 234.098 249.326 233.544 248.798 232.964L248.797 232.963C245.633 229.529 244.907 224.474 244.993 220.213C245.074 216.213 245.867 212.972 245.975 212.534C245.98 212.513 245.983 212.498 245.985 212.491L245.985 212.491C246.061 212.15 245.952 211.741 245.581 211.531C245.265 211.337 244.818 211.363 244.554 211.661C235.613 220.483 231.629 228.55 230.222 235.295C228.928 241.493 229.813 246.557 231 250.041C227.519 247.212 223.348 245.495 219.919 244.47C216.271 243.378 213.445 243.064 213.149 243.031L213.144 243.031L213.13 243.029H213.116C212.961 243.029 212.803 243.055 212.66 243.129C212.515 243.204 212.401 243.321 212.322 243.477C212.166 243.756 212.164 244.117 212.367 244.402L212.367 244.402L212.37 244.405C215.904 249.185 214.536 253.71 213.45 257.142ZM223.283 247.498C226.917 249.03 230.704 251.348 233.237 254.808L233.224 254.821L233.319 254.987C233.382 255.098 233.438 255.178 233.476 255.231C233.48 255.237 233.483 255.242 233.487 255.246V255.265L233.539 255.333C233.82 255.694 234.349 255.783 234.723 255.491C235.087 255.208 235.161 254.722 234.928 254.332L234.921 254.321L234.913 254.311C234.824 254.191 234.752 254.095 234.707 254.004L234.7 253.99L234.691 253.977C233.904 252.795 231.201 248.195 231.24 241.243C231.279 234.429 233.952 225.322 243.718 214.93C243.371 217.076 243.051 220.184 243.335 223.456C243.657 227.168 244.758 231.118 247.51 234.106L247.512 234.108L247.674 234.281C248.536 235.197 249.375 236.09 250.214 236.957C253.11 239.956 255.559 242.497 256.838 245.207C258.102 247.889 258.223 250.747 256.402 254.406C256.237 254.737 256.319 255.14 256.564 255.385C256.808 255.629 257.211 255.712 257.542 255.546C257.548 255.543 257.555 255.54 257.565 255.535C257.878 255.379 260.053 254.297 262.416 252.511C264.655 250.82 267.097 248.472 268.259 245.656C269.058 248.451 270.096 252.918 270.319 257.86C270.562 263.256 269.831 269.192 266.781 274.134C262.844 280.484 255.693 284.225 245.46 285.169C233.058 286.316 224.168 283.872 218.961 278.009C213.605 271.967 213.571 263.753 214.395 259.859L214.395 259.859L214.396 259.854C214.49 259.362 214.662 258.83 214.871 258.187C214.91 258.067 214.95 257.943 214.991 257.814L214.992 257.813L215.018 257.732C216.019 254.587 217.497 249.944 214.776 244.995C216.702 245.342 219.918 246.079 223.283 247.498Z" fill="#333333" stroke="#333333" stroke-width="0.5"/>
</g>
<g clip-path="url(#clip2_472_212)">
<path d="M121.323 148.362C120.768 148.146 120.282 148.165 119.866 148.419C119.269 148.785 118.924 149.603 119.015 150.483C119.118 151.382 119.623 152.085 120.465 152.405C122.529 153.217 123.956 155.101 124.189 157.312C124.403 159.408 123.505 161.273 121.823 162.303C121.66 162.402 121.497 162.502 121.323 162.583C119.492 163.451 117.368 163.84 115.309 164.215L113.862 164.493C110.154 165.219 107.103 165.922 104.498 167.517L103.982 167.731C102.138 167.114 100.254 167.002 98.3891 167.41C96.5065 167.828 94.8875 168.718 93.6935 169.449C93.0241 169.858 92.366 170.286 91.7191 170.733C91.061 171.161 90.4142 171.607 89.7448 172.017C88.2613 172.925 87.0608 173.483 85.8425 173.849L85.4424 173.967L85.5086 173.547C85.7553 171.878 85.6022 170.125 85.0538 168.335C84.265 165.705 82.7768 163.883 80.7538 163.097C78.8189 162.333 76.4915 162.593 74.5557 163.778C72.8009 164.852 71.637 166.526 71.3494 168.372C71.057 170.373 71.8151 172.465 73.5289 174.452C74.8143 175.943 76.4662 177.057 78.4104 177.715L78.8258 177.865L78.5091 178.16C77.6673 178.979 76.6426 179.783 75.2947 180.71C75.0233 180.876 74.7813 181.049 74.528 181.204C70.7108 183.541 66.8496 183.652 62.2463 183.079C62.2463 183.079 62.2463 183.079 62.2282 183.09C62.2193 182.994 62.2104 182.898 62.1903 182.784C61.5958 177.303 59.2648 172.682 56.2334 168.135C54.9105 166.136 51.7513 168.045 53.1037 170.051C56.8134 175.624 58.3442 180.482 58.7337 187.05C58.9915 191.169 59.8442 194.797 61.4356 198.453C61.3995 198.476 61.3633 198.498 61.3158 198.502C56.379 201.65 53.6127 206.556 53.9996 211.861C50.0187 209.136 45.3048 208.504 40.3962 210.926C33.4738 215.34 30.705 223.209 35.121 230.83C36.3511 232.962 37.9662 234.504 39.7561 235.559C39.5458 235.662 39.3243 235.747 39.114 235.851C32.6729 240.198 29.732 246.932 33.2331 254.481C37.1169 262.858 46.0324 263.853 53.345 259.833C53.7069 259.612 54.0687 259.39 54.4124 259.18C53.9468 262.198 54.468 265.446 56.3448 268.675C60.79 276.304 69.657 276.57 76.4706 272.425C76.7238 272.27 76.9658 272.096 77.2079 271.923C76.3712 275.269 76.8081 278.949 78.9328 282.583C83.3104 290.101 91.9559 290.452 98.7036 286.525C98.643 289.067 99.2601 291.7 100.794 294.329C105.24 301.957 114.107 302.224 120.92 298.079C127.227 294.244 128.696 285.754 124.23 279.757C122.582 277.552 120.682 275.83 118.624 274.661C119.921 274.221 121.205 273.638 122.417 272.896C128.724 269.061 130.193 260.571 125.727 254.575C123.982 252.252 121.967 250.423 119.737 249.258C120.314 248.981 120.897 248.674 121.458 248.331C127.765 244.496 129.233 236.006 124.767 230.01C123.011 227.669 120.979 225.851 118.737 224.667C119.332 224.379 119.915 224.073 120.487 223.748C126.794 219.913 128.263 211.423 123.797 205.427C119.171 199.25 112.582 196.653 105.625 200.076C105.499 200.153 105.395 200.268 105.268 200.345C105.193 197.785 104.354 195.236 102.695 193.013C98.069 186.836 91.4808 184.239 84.5238 187.662C79.5146 190.855 76.7278 195.85 77.2185 201.243C73.7424 197.88 69.4773 196.315 64.928 197.252C63.4356 193.839 62.955 190.616 62.6351 187.168C68.6821 187.743 72.9375 186.935 76.9899 184.455C77.8764 183.912 78.7721 183.263 79.652 182.547C81.2423 181.245 82.5209 179.88 83.6801 178.361C84.3556 178.327 85.0086 178.256 85.6866 178.145C87.7747 177.778 89.746 176.976 91.9169 175.647C92.6406 175.204 93.3236 174.736 94.0134 174.238C94.6852 173.75 95.3863 173.271 96.1099 172.828C97.6115 171.909 98.8933 171.403 100.152 171.265L100.663 171.205L100.4 171.67C97.9666 175.942 97.7315 180.312 99.7752 183.692C101.161 185.956 103.21 187.637 105.294 188.158C106.773 188.543 108.195 188.306 109.497 187.509L109.642 187.42C111.634 186.125 112.751 184.252 112.979 181.861C113.381 177.642 110.907 173.032 108.429 170.526L108.153 170.239L108.513 170.095C109.083 169.847 109.645 169.629 110.26 169.456C111.711 169.023 113.417 168.763 115.207 168.477C118.43 167.973 121.736 167.442 124.232 165.914C125.191 165.327 125.922 164.652 126.526 163.852C128.374 161.304 128.898 158.301 128.024 155.369C127.08 152.202 124.581 149.582 121.348 148.322L121.323 148.362ZM106.022 274.429C105.606 274.683 105.271 274.99 104.878 275.281C104.837 274.117 104.635 272.975 104.273 271.855C105.139 272.742 106.076 273.46 107.094 274.026C106.734 274.17 106.37 274.266 106.015 274.458L106.022 274.429ZM101.001 266.469C99.5197 264.82 97.8681 263.503 96.0915 262.592C96.9009 262.248 97.6764 261.849 98.4182 261.395C99.0875 260.986 99.6757 260.525 100.241 260.027C99.994 262.101 100.194 264.256 101.001 266.469ZM59.7495 250.144C59.8057 248.895 59.6608 247.642 59.3442 246.394C60.2466 247.259 61.2485 247.961 62.2914 248.487C62.0518 248.583 61.8009 248.66 61.5726 248.775C60.9032 249.185 60.3263 249.664 59.7495 250.144ZM99.7274 240.781C98.6537 239.718 97.5097 238.824 96.2954 238.099C97.2945 237.741 98.2667 237.298 99.2006 236.751C99.1601 238.067 99.3432 239.422 99.7274 240.781ZM96.4803 258.229C91.496 261.381 84.7408 261.518 81.4334 255.749C78.1035 249.942 80.2836 244.281 85.5099 240.956C95.4831 236.041 106.908 251.619 96.4622 258.24L96.4803 258.229ZM60.0818 241.464C56.7519 235.658 58.932 229.996 64.1583 226.671C74.1315 221.756 85.5564 237.334 75.1106 243.955C70.1263 247.107 63.3711 247.244 60.0637 241.475L60.0818 241.464ZM84.2435 237.505C84.0039 237.601 83.7891 237.657 83.5608 237.771C83.2894 237.937 83.0699 238.148 82.8098 238.332C82.8921 237.776 82.9336 237.194 82.9391 236.634C83.361 236.957 83.7898 237.252 84.2435 237.505ZM61.0828 224.328C61.0923 224.018 61.0837 223.72 61.0639 223.403C61.3145 223.528 61.565 223.653 61.8224 223.748C61.5511 223.914 61.3316 224.125 61.0715 224.309L61.0828 224.328ZM55.2779 239.141C54.2179 238.018 52.9995 237.043 51.6858 236.279C52.7686 235.894 53.8312 235.396 54.8488 234.823C54.7403 236.231 54.9142 237.693 55.2779 239.141ZM76.5057 247.454C76.2918 248.445 76.1953 249.466 76.2343 250.505C75.3972 249.828 74.5396 249.239 73.6367 248.78C74.6177 248.432 75.5899 247.989 76.5057 247.454ZM82.2932 262.029C82.8033 262.375 83.3269 262.662 83.8868 262.926C83.2468 263.343 82.6406 263.815 82.0818 264.284C82.2231 263.54 82.2875 262.792 82.2932 262.029ZM103.979 247.972C104.854 248.752 105.782 249.373 106.791 249.844C105.848 250.497 105.027 251.227 104.257 252.002C104.381 250.661 104.293 249.297 103.979 247.972ZM105.522 225.139C105.522 225.139 105.732 225.238 105.832 225.279C105.723 225.345 105.644 225.419 105.547 225.504C105.544 225.379 105.524 225.264 105.522 225.139ZM98.2477 213.701C97.7377 213.355 97.2096 213.02 96.6678 212.745C97.1832 212.531 97.7055 212.287 98.1984 212.036C98.1817 212.577 98.2057 213.145 98.2477 213.701ZM86.7559 216.053C96.7291 211.138 108.154 226.717 97.7082 233.338C92.7239 236.49 85.9687 236.626 82.6613 230.857C79.3314 225.051 81.5115 219.39 86.7378 216.064L86.7559 216.053ZM77.4755 225.757C76.352 224.774 75.1763 223.951 73.9234 223.326C74.6672 222.997 75.4066 222.62 76.1121 222.188C76.9624 221.668 77.7089 221.059 78.3922 220.388C77.7186 222.091 77.3972 223.882 77.4643 225.738L77.4755 225.757ZM42.273 214.155C52.2461 209.24 63.671 224.818 53.2252 231.439C48.241 234.591 41.4857 234.728 38.1784 228.959C34.8485 223.153 37.0286 217.491 42.2549 214.166L42.273 214.155ZM36.5049 252.756C33.9564 247.13 36.3387 242.205 41.0632 239.035C51.2968 233.733 62.661 250.513 51.3778 256.66C45.9012 259.657 39.3753 259.071 36.5162 252.775L36.5049 252.756ZM59.4452 266.752C56.1153 260.946 58.2954 255.285 63.5217 251.959C73.4949 247.045 84.9197 262.623 74.474 269.244C69.4897 272.396 62.7344 272.533 59.4271 266.763L59.4452 266.752ZM82.0332 280.66C78.7033 274.854 80.8834 269.193 86.1097 265.867C96.0829 260.952 107.508 276.531 97.062 283.152C92.0777 286.304 85.3224 286.44 82.0151 280.671L82.0332 280.66ZM118.942 294.887C113.957 298.039 107.202 298.175 103.895 292.406C100.565 286.6 102.745 280.939 107.971 277.613C117.945 272.698 129.369 288.277 118.924 294.898L118.942 294.887ZM120.421 269.715C115.437 272.867 108.681 273.004 105.374 267.234C102.044 261.428 104.224 255.767 109.451 252.442C119.424 247.527 130.849 263.105 120.403 269.726L120.421 269.715ZM119.473 245.169C114.488 248.321 107.733 248.457 104.426 242.688C101.096 236.882 103.276 231.221 108.502 227.895C118.475 222.98 129.9 238.559 119.455 245.18L119.473 245.169ZM118.502 220.586C113.518 223.738 106.762 223.874 103.455 218.105C100.125 212.299 102.305 206.637 107.531 203.312C117.505 198.397 128.93 213.976 118.484 220.597L118.502 220.586ZM86.448 190.887C96.4212 185.972 107.846 201.551 97.4003 208.172C92.416 211.324 85.6607 211.46 82.3534 205.691C79.0235 199.885 81.2036 194.224 86.4299 190.898L86.448 190.887ZM82.0354 211.022C82.8995 211.784 83.8338 212.376 84.8317 212.828C83.468 213.688 82.3232 214.743 81.3071 215.846C81.863 214.316 82.1209 212.666 82.0535 211.011L82.0354 211.022ZM74.2172 218.971C69.2329 222.123 62.4777 222.259 59.1704 216.49C55.8405 210.684 58.0206 205.022 63.2469 201.697C73.22 196.782 84.6449 212.361 74.1991 218.982L74.2172 218.971ZM81.4588 171.522C81.5118 172.299 81.4156 173.117 81.1703 173.976L81.1044 174.193L80.8808 174.153C78.6561 173.769 76.9792 172.695 76.0127 171.034C75.2151 169.65 75.2682 167.543 76.6431 166.701C77.1316 166.402 77.7146 166.298 78.4216 166.397C81.1027 166.755 81.4619 171.039 81.4882 171.529L81.4588 171.522ZM108.529 182.636C108.203 183.24 107.822 183.675 107.406 183.93C106.773 184.318 106.053 184.278 105.321 183.815C103.604 182.715 102.33 179.496 102.502 177.746C102.7 175.956 103.4 174.337 104.591 172.951L104.763 172.744L104.959 172.903C107.502 175.066 110.154 179.642 108.536 182.606L108.529 182.636Z" fill="#333333"/>
<path d="M46.5294 228.301C44.8587 227.603 42.9521 226.113 43.1157 224.064C43.3251 221.684 39.6131 221.755 39.4218 224.124C39.1501 227.377 42.0144 230.432 44.8072 231.582C46.9927 232.471 48.7375 229.227 46.5407 228.319L46.5294 228.301Z" fill="#333333"/>
<path d="M41.8842 221.402C43.9104 220.162 41.9613 216.977 39.9351 218.217C37.9089 219.458 39.858 222.642 41.8842 221.402Z" fill="#333333"/>
<path d="M96.5547 258.31C91.5161 261.495 84.6841 261.628 81.3429 255.804C77.968 249.924 80.1798 244.193 85.4604 240.834C95.5421 235.853 107.109 251.623 96.5366 258.321L96.5547 258.31Z" fill="#6B6BAD"/>
<path d="M60.1494 241.574C56.7745 235.694 58.9863 229.963 64.2669 226.604C74.3486 221.623 85.9155 237.393 75.3431 244.091C70.3045 247.277 63.4725 247.41 60.1313 241.585L60.1494 241.574Z" fill="#6B6BAD"/>
<path d="M86.8327 216.057C96.9144 211.076 108.481 226.845 97.9089 233.544C92.8704 236.729 86.0383 236.862 82.6972 231.038C79.3222 225.158 81.5341 219.427 86.8146 216.068L86.8327 216.057Z" fill="#6B6BAD"/>
<path d="M42.1852 213.93C52.2669 208.949 63.8338 224.719 53.2614 231.417C48.2228 234.602 41.3908 234.735 38.0497 228.911C34.6747 223.031 36.8865 217.3 42.1671 213.941L42.1852 213.93Z" fill="#6B6BAD"/>
<path d="M36.3124 253.051C33.7189 247.351 36.151 242.345 40.9366 239.113C51.333 233.711 62.8662 250.767 51.4202 257.013C45.86 260.037 39.2392 259.458 36.3237 253.07L36.3124 253.051Z" fill="#6B6BAD"/>
<path d="M59.3117 266.859C55.9368 260.979 58.1486 255.248 63.4292 251.89C73.5109 246.908 85.0778 262.678 74.5054 269.377C69.4668 272.562 62.6348 272.695 59.2936 266.87L59.3117 266.859Z" fill="#6B6BAD"/>
<path d="M81.7911 280.833C78.4162 274.954 80.628 269.222 85.9086 265.864C95.9903 260.882 107.557 276.652 96.9848 283.351C91.9462 286.536 85.1142 286.669 81.773 280.844L81.7911 280.833Z" fill="#6B6BAD"/>
<path d="M119.172 294.897C114.134 298.083 107.302 298.216 103.96 292.391C100.585 286.511 102.797 280.78 108.078 277.421C118.16 272.44 129.727 288.21 119.154 294.909L119.172 294.897Z" fill="#6B6BAD"/>
<path d="M120.461 269.741C115.423 272.926 108.591 273.059 105.25 267.234C101.875 261.355 104.087 255.623 109.367 252.265C119.449 247.283 131.016 263.053 120.443 269.752L120.461 269.741Z" fill="#6B6BAD"/>
<path d="M119.468 245.324C114.429 248.509 107.597 248.642 104.256 242.817C100.881 236.937 103.093 231.206 108.374 227.848C118.455 222.866 130.022 238.636 119.45 245.335L119.468 245.324Z" fill="#6B6BAD"/>
<path d="M118.666 220.814C113.628 223.999 106.796 224.132 103.455 218.307C100.08 212.428 102.292 206.696 107.572 203.338C117.654 198.357 129.221 214.126 118.648 220.825L118.666 220.814Z" fill="#6B6BAD"/>
<path d="M86.3647 190.711C96.6748 185.615 108.503 201.731 97.6956 208.573C92.5304 211.836 85.5741 211.969 82.1428 205.997C78.689 199.989 80.9462 194.128 86.3534 190.692L86.3647 190.711Z" fill="#6B6BAD"/>
<path d="M74.3258 218.904C69.1606 222.167 62.1749 222.293 58.7549 216.339C55.2898 210.312 57.5764 204.459 62.9724 201.005C73.3005 195.898 85.1515 212.05 74.3258 218.904Z" fill="#6B6BAD"/>
</g>
<g clip-path="url(#clip3_472_212)">
<path d="M106.562 2.22815C108.651 9.02589 106.861 17.5529 101.47 22.681C96.4965 27.3917 88.8179 28.9818 81.9151 29.916C81.935 29.7769 81.9946 29.6576 81.9747 29.4986C80.9204 16.1814 92.319 3.91765 106.582 2.22815H106.562Z" fill="#45730A"/>
<path d="M111.615 103.737C101.609 112.9 90.469 103.161 79.2892 103.618C73.938 103.836 69.2234 106.579 64.1109 107.832C54.9801 110.058 49.609 103.578 45.0535 96.82C37.3948 85.391 30.293 73.0279 29.378 59.0746C28.4629 45.1015 34.6695 27.5904 50.4246 24.7282C61.7238 22.6809 70.3573 30.0749 81.0995 30.8899C81.2785 30.9495 81.4973 30.9694 81.736 30.9495C84.8194 30.9098 87.8431 30.2141 90.8271 29.3196C92.2594 28.9619 93.6519 28.4848 95.0245 27.968C101.39 25.8214 107.696 23.5754 114.301 25.3444C132.264 30.1545 133.338 52.1179 129.936 66.7668C127.012 79.3287 121.383 94.733 111.595 103.717L111.615 103.737Z" fill="#AC2324"/>
<path d="M76.0865 12.7626C78.4935 17.3938 80.3436 22.0847 79.9457 22.2834C79.7667 22.3828 79.3489 21.3492 77.8371 19.938C76.4843 18.6858 75.7085 18.5069 73.759 16.7975C73.3413 16.4398 72.9434 16.0621 72.5058 15.6248C68.2686 11.4707 65.0459 12.6036 64.2502 10.0395C63.4147 7.31648 66.1599 3.14243 68.6664 3.04305C70.974 2.94367 72.7246 6.28291 76.0865 12.7427V12.7626Z" fill="#976F2C"/>
<path d="M116.27 24.2709C111.635 22.5218 107.278 22.8001 102.962 23.8337C103.22 23.5554 103.499 23.3169 103.738 23.0386C108.472 17.2546 110.123 8.60832 107.756 1.53231C107.716 1.39317 107.637 1.31367 107.577 1.21429C107.517 0.558365 107.08 -0.0379277 106.204 0.0217016C95.0244 0.916141 85.3167 8.96609 82.1139 19.3018C79.6074 11.8084 73.9976 4.81192 68.1093 0.439106C67.6717 0.121084 67.254 0.121084 66.8959 0.280095C66.8561 0.280095 66.8163 0.319848 66.7765 0.339724C66.697 0.399354 66.6174 0.439106 66.5378 0.518612C66.4781 0.558365 66.4185 0.578241 66.3588 0.657747C64.1109 3.18205 62.9372 6.9387 62.0818 10.1388C61.9426 10.6755 62.0818 11.0929 62.3802 11.4109C62.5393 11.6295 62.7582 11.8283 63.0963 11.9277C71.1132 14.3725 77.1009 20.6733 79.3488 28.6636C70.4368 27.1729 62.8377 21.5479 53.1897 22.7405C43.8798 23.8933 36.6388 30.3134 32.7597 38.6615C22.7934 60.2075 34.2914 86.0469 48.3557 103.001C55.7161 111.886 62.5791 110.912 72.6648 107.573C79.9854 105.148 84.9387 106.539 92.0604 108.328C95.9992 109.322 100.435 110.356 104.533 109.7C114.34 108.149 120.646 96.2435 124.187 88.114C129.379 76.1484 133.398 63.8449 133 50.647C132.682 39.7149 127.052 28.3257 116.29 24.2511L116.27 24.2709ZM105.17 3.04292C106.98 9.34374 105.428 17.2943 100.773 22.0448C96.4766 26.4375 89.8523 27.9083 83.8844 28.763C83.9043 28.6438 83.9441 28.5245 83.9242 28.3854C83.0091 16.0023 92.8561 4.61316 105.15 3.04292H105.17ZM65.2249 9.66177C65.7819 7.63437 66.5378 5.48772 67.6916 3.75847C73.1224 8.15116 78.1553 15.1675 79.9257 22.3032C76.8025 16.4794 71.5707 11.9873 65.2249 9.68164V9.66177ZM110.979 103.021C101.37 111.986 90.6679 102.445 79.9257 102.902C74.7735 103.121 70.2578 105.804 65.3442 107.017C56.5715 109.203 51.3993 102.862 47.0428 96.2633C39.6625 85.0928 32.8592 73.0079 31.9839 59.3727C31.1086 45.7176 37.0566 28.604 52.2149 25.8014C63.0566 23.7939 71.3718 31.0289 81.6763 31.824C81.8553 31.8836 82.0543 31.9035 82.293 31.8836C85.257 31.8439 88.1614 31.1681 91.026 30.2935C92.3986 29.9357 93.7513 29.4786 95.0642 28.9816C101.171 26.8747 107.239 24.6883 113.584 26.4176C130.852 31.1283 131.866 52.575 128.604 66.9059C125.799 79.1895 120.388 94.2558 110.998 103.021H110.979Z" fill="#333333"/>
<path d="M55.4376 34.2888C45.6901 38.3038 40.7567 50.5874 42.3879 60.4859C42.6863 62.3145 45.4713 61.5393 45.1729 59.7107C43.8202 51.5415 48.0176 40.4107 56.1935 37.0516C57.8844 36.3559 57.1484 33.5533 55.4177 34.2689L55.4376 34.2888Z" fill="#333333"/>
<path d="M44.3175 66.4489C42.4674 66.4489 42.4476 69.3309 44.3175 69.3309C46.1874 69.3309 46.1874 66.4489 44.3175 66.4489Z" fill="#333333"/>
</g>
<defs>
<clipPath id="clip0_472_212">
<rect width="153" height="82" fill="white" transform="translate(170.619 17.999) rotate(10.1933)"/>
</clipPath>
<clipPath id="clip1_472_212">
<rect width="89" height="137" fill="white" transform="translate(196 164)"/>
</clipPath>
<clipPath id="clip2_472_212">
<rect width="132.992" height="146.393" fill="white" transform="translate(0 200.427) rotate(-31.4692)"/>
</clipPath>
<clipPath id="clip3_472_212">
<rect width="104" height="110" fill="white" transform="translate(29)"/>
</clipPath>
</defs>
</svg>
