<svg width="312" height="298" viewBox="0 0 312 298" fill="none" xmlns="http://www.w3.org/2000/svg">
<g clip-path="url(#clip0_472_213)">
<path d="M296.676 221.875C294.97 223.136 292.363 224.397 290.978 226.013C290.978 226.013 290.882 226.078 290.85 226.11C288.983 221.713 283.735 216.799 281.063 213.017C278.649 209.59 275.977 206.13 273.949 202.445C274.271 198.985 274.142 189.868 275.913 187.993C276.911 186.926 276.557 187.088 279.615 187.638C281.063 187.896 282.512 188.155 283.961 188.414C286.568 188.866 291.043 188.834 293.328 190.224C293.232 190.159 294.23 191.194 295.131 192.584C298.157 197.207 301.441 201.669 304.563 206.227C305.851 208.135 307.139 210.98 308.845 212.532C304.789 214.18 300.024 219.418 296.644 221.907L296.676 221.875Z" fill="#E5D48E"/>
<path d="M242.659 215.312C247.455 223.427 251.994 231.735 256.211 240.173C258.754 245.314 260.976 250.616 263.519 255.789C265.418 259.668 269.088 265.003 267.221 268.333C265.772 270.951 258.851 273.247 254.537 274.669C254.28 272.051 253.121 269.141 252.445 266.102C249.161 251.133 245.717 236.197 241.789 221.39C240.566 216.734 239.021 212.176 237.733 207.553C237.604 207.1 237.476 206.583 237.379 206.066C239.343 209.202 241.017 212.499 242.691 215.312H242.659Z" fill="#887149"/>
<path d="M216.261 192.649C220.768 194.588 227.657 196.237 231.488 199.244C231.649 199.373 231.714 199.406 231.842 199.503C231.939 199.729 232.068 199.923 232.261 200.149C233.548 202.348 233.709 206.033 234.385 208.49C235.512 212.499 236.961 216.443 238.152 220.42C241.757 232.285 244.719 244.344 247.713 256.338C249.001 261.543 250.32 266.716 251.511 271.954C251.801 273.182 252.123 274.443 252.348 275.672C242.015 279.81 231.166 283.01 220.575 286.437C213.203 288.83 202.097 294.552 193.888 294.649C192.729 292.709 192.214 288.733 191.731 287.019C190.154 281.685 188.738 276.286 187.289 270.887C184.198 259.248 181.237 247.545 178.211 235.874C175.603 225.819 176.537 219.062 179.402 208.814C180.786 203.867 181.366 203.091 186.194 200.86C193.116 197.692 200.23 195.106 207.441 192.616C213.235 190.612 210.596 190.192 216.261 192.649Z" fill="#887149"/>
<path d="M311.356 211.303C307.332 203.964 301.891 196.302 296.612 189.804C294.841 187.605 294.391 187.217 291.558 186.474C286.407 185.116 279.55 183.338 274.207 183.467C274.078 183.467 273.981 183.532 273.852 183.564C263.229 176.031 250.352 164.134 257.66 150.491C261.362 143.54 265.837 140.145 264.613 131.61C262.167 113.99 240.695 106.619 225.178 108.559C210.596 110.402 196.335 121.264 189.51 134.164C179.659 152.818 185.55 174.77 195.562 192.034C194.918 192.325 194.307 192.584 193.727 192.81C189.349 194.556 181.977 196.237 178.887 199.955C174.412 205.354 172.159 220.194 172.867 227.015C174.219 239.85 179.209 253.364 182.235 265.908C184.005 273.279 185.776 280.65 187.804 287.957C188.512 290.446 189.027 294.682 191.023 296.589C191.409 296.977 191.86 297.106 192.278 297.171C192.407 297.171 192.504 297.268 192.633 297.268C200.777 297.85 211.915 292.095 219.481 289.703C229.202 286.631 243.174 284.627 251.737 278.969C251.962 278.808 252.155 278.678 252.348 278.517C252.574 278.517 252.767 278.517 252.992 278.42C258.207 276.383 271.02 273.247 272.243 266.846C273.37 260.994 266.094 251.521 263.744 246.348C259.334 236.617 254.344 227.209 249.033 217.931C245.395 211.562 241.564 202.962 235.802 198.015C235.448 197.304 235.094 196.658 234.578 196.14C232.164 193.554 225.468 191.937 222.313 190.483C219.255 189.06 215.585 186.506 212.173 186.377C208.696 186.247 203.964 188.252 199.715 190.224C188.448 170.988 183.104 145.706 199.715 127.73C212.591 113.732 231.971 108.074 249.354 117.838C261.104 124.465 262.392 134.811 255.471 145.512C252.413 150.232 249.998 155.89 250.513 161.612C251.415 171.958 263.036 181.398 271.309 187.25C269.925 192.099 270.054 198.468 269.442 203.091C269.346 203.899 269.635 204.449 270.086 204.805C272.758 209.719 276.428 214.31 279.679 218.836C282.029 222.101 284.637 227.242 288.049 229.569C288.725 230.022 289.659 229.925 290.335 229.569C294.423 227.339 298.189 223.944 301.891 221.196C304.885 218.965 309.07 216.67 311.388 213.598C311.871 212.952 311.742 211.95 311.388 211.303H311.356ZM243.141 216.799C247.68 224.494 251.994 232.35 255.986 240.367C258.4 245.249 260.525 250.26 262.907 255.175C264.71 258.86 268.187 263.904 266.416 267.072C265.032 269.529 258.497 271.727 254.376 273.085C254.151 270.628 253.024 267.848 252.38 264.97C249.258 250.778 246.007 236.617 242.272 222.586C241.113 218.157 239.665 213.857 238.409 209.46C238.281 209.008 238.184 208.555 238.087 208.038C239.922 211.012 241.564 214.148 243.109 216.799H243.141ZM216.358 192.649C220.639 194.621 227.207 196.302 230.844 199.341C231.005 199.47 231.07 199.503 231.166 199.6C231.231 199.826 231.391 200.02 231.552 200.246C232.776 202.445 232.872 206.033 233.484 208.458C234.514 212.435 235.834 216.314 236.961 220.258C240.244 231.962 242.948 243.891 245.652 255.724C246.844 260.865 248.002 265.973 249.097 271.145C249.354 272.374 249.644 273.602 249.87 274.831C239.922 278.775 229.492 281.782 219.32 285.015C212.237 287.278 201.55 292.742 193.663 292.742C192.568 290.834 192.15 286.89 191.699 285.209C190.25 279.939 188.963 274.605 187.643 269.303C184.842 257.793 182.17 246.251 179.402 234.742C177.02 224.817 178.018 218.189 180.883 208.135C182.267 203.285 182.846 202.509 187.482 200.408C194.146 197.369 201.002 194.912 207.924 192.552C213.493 190.644 210.95 190.224 216.39 192.713L216.358 192.649ZM295.035 220.614C293.457 221.778 291.043 222.942 289.755 224.461C289.755 224.461 289.691 224.526 289.659 224.558C287.92 220.485 283.059 215.894 280.58 212.402C278.327 209.202 275.848 206.001 273.981 202.574C274.271 199.373 274.174 190.903 275.816 189.157C276.75 188.155 276.428 188.316 279.261 188.834C280.613 189.06 281.965 189.319 283.317 189.545C285.731 189.965 289.884 189.933 292.041 191.226C291.944 191.162 292.878 192.131 293.715 193.425C296.515 197.724 299.574 201.863 302.471 206.066C303.662 207.811 304.853 210.462 306.43 211.917C302.664 213.437 298.254 218.319 295.099 220.646L295.035 220.614Z" fill="#333333"/>
<path d="M195.594 276.512C196.302 278.743 196.785 281.653 198.588 283.301C201.968 286.373 208.149 283.237 211.626 281.782C214.298 280.65 211.98 276.739 209.34 277.87C207.602 278.614 205.799 279.26 203.964 279.681C201.55 280.23 201.389 279.81 200.648 277.547C199.425 273.829 198.331 270.079 197.204 266.328C196.367 263.548 192.021 264.744 192.858 267.525C193.759 270.531 194.661 273.506 195.594 276.512Z" fill="#333333"/>
<path d="M216.454 279.81C219.352 279.81 219.352 275.284 216.454 275.284C213.557 275.284 213.557 279.81 216.454 279.81Z" fill="#333333"/>
</g>
<g clip-path="url(#clip1_472_213)">
<path d="M27.076 70.8571C27.4572 68.2883 27.9661 65.7785 28.5148 63.2414C37.7377 62.1693 47.0639 62.0201 56.0967 64.5257C63.7415 66.6649 70.6584 70.8209 78.1412 73.4506C90.7248 77.9127 103.051 76.9405 115.71 73.842C111.408 103.224 97.7913 128.657 64.5356 123.799C37.8292 119.901 23.3645 96.5634 27.1095 70.8634L27.076 70.8571Z" fill="#5E1520"/>
<path d="M46.9956 42.549C49.1124 36.486 51.1622 30.4104 53.1786 24.3284C54.1447 21.4185 49.4485 20.566 48.4888 23.4424C46.6155 29.1345 44.6752 34.8138 42.7078 40.4533C41.7146 43.3234 45.996 45.4526 46.9956 42.549Z" fill="#333333"/>
<path d="M53.4048 17.804C56.4197 18.3736 57.307 13.6767 54.2921 13.1071C51.2773 12.5375 50.39 17.2344 53.4048 17.804Z" fill="#333333"/>
<path d="M58.7968 169.971C61.6806 155.991 64.3634 141.974 66.751 127.866C122.302 132.975 123.877 56.691 117.451 17.4295C117.474 16.3914 116.935 15.3862 115.61 15.24C93.241 12.4388 71.1828 7.99361 49.2323 2.97812C49.0983 2.9528 48.9915 2.96737 48.8847 2.98193C48.6837 2.94396 48.4764 2.93954 48.2627 2.96867C48.2627 2.96867 48.2627 2.96867 48.2292 2.96234C47.5547 3.04339 46.93 3.41183 46.5642 4.24614C36.4898 28.9241 20.5677 56.4585 22.292 84.0604C23.4669 103.185 36.0974 118.601 53.2874 124.941C53.2621 125.075 53.1761 125.163 53.1444 125.331C50.7775 139.512 48.0757 153.63 45.1394 167.703C37.5832 166.38 2.99845 159.742 2.22505 174.12C1.62009 185.403 31.4128 190.962 38.8739 192.788C50.6726 195.712 62.7836 197.166 74.9426 197.448C79.8515 197.541 93.508 197.793 96.236 191.985C102.293 179.022 67.146 171.687 58.7968 169.971ZM50.1077 8.07753C70.8985 12.8044 91.8304 16.9673 112.995 19.7148C115.069 33.3451 116.291 51.8527 114.341 69.518C114.073 69.4673 113.826 69.4901 113.533 69.5737C94.781 74.4398 81.6524 70.2918 64.3963 63.3834C53.2703 58.9187 42.0818 58.0906 30.4189 59.223C35.0302 41.6089 43.2276 24.846 50.1349 8.1174L50.1077 8.07753ZM27.7914 71.4786C28.1536 69.0105 28.6561 66.5342 29.1857 64.0978C38.1217 63.0757 47.1735 62.9094 55.9048 65.3581C63.3215 67.4194 70.023 71.4304 77.2713 74.0159C89.4656 78.3349 101.438 77.4001 113.703 74.3661C109.533 102.87 96.342 127.515 64.064 122.807C38.1679 119.027 24.1587 96.4007 27.7914 71.4786ZM81.1245 192.639C67.8066 194.085 52.7532 191.31 39.7947 188.098C31.5424 186.052 17.7447 183.793 11.1111 177.953C4.12001 171.803 15.3266 170.515 20.4999 170.311C28.4671 170.009 36.4008 170.987 44.2249 172.36C43.8618 174.099 43.5658 175.85 43.1628 177.615C42.5254 180.622 47.2152 181.508 47.8526 178.501C51.5775 161.171 54.8942 143.799 57.8088 126.351C59.1967 126.717 60.5638 127.01 62.0042 127.282C59.0896 144.731 55.7522 162.029 52.0671 179.332C51.4296 182.339 56.1194 183.225 56.7568 180.218C57.1389 178.379 57.4875 176.534 57.8696 174.695C65.7164 176.316 73.5206 178.347 80.8893 181.58C82.7435 182.417 88.4934 184.302 89.4304 186.321C92.1663 192.224 84.3712 192.349 81.1517 192.679L81.1245 192.639Z" fill="#333333"/>
</g>
<defs>
<clipPath id="clip0_472_213">
<rect width="139" height="189" fill="white" transform="translate(172.708 108.268)"/>
</clipPath>
<clipPath id="clip1_472_213">
<rect width="96" height="189" fill="white" transform="translate(35.0847) rotate(10.6981)"/>
</clipPath>
</defs>
</svg>
