<svg width="294" height="259" viewBox="0 0 294 259" fill="none" xmlns="http://www.w3.org/2000/svg">
<g clip-path="url(#clip0_472_214)">
<path d="M59.427 54.473C58.6048 53.0484 57.0852 52.2421 56.9928 50.9045C56.7941 48.101 54.9881 48.1698 53.025 48.3072C51.6485 48.4034 50.2581 48.4904 48.9001 48.7149C40.0868 50.1716 32.3175 53.6164 26.2249 60.3502C24.8807 61.8344 25.2318 62.407 26.8346 63.2361C33.8649 66.8825 41.3294 67.6612 49.0202 66.5115C53.4776 65.8472 58.3924 65.7556 60.5957 60.5976C60.9698 59.7272 62.3186 59.0767 61.732 58.0506C61.1407 57.0154 59.7966 57.3727 58.7434 57.3681C57.1729 57.3589 55.741 57.959 54.3275 58.5637C52.8448 59.2004 51.4037 59.9196 49.9117 60.5289C45.8884 62.178 41.9437 61.7932 38.0868 59.9563C37.2276 59.5486 36.3176 59.063 36.8673 57.8995C37.3338 56.9192 38.2623 57.0016 39.0568 57.4185C43.0662 59.5119 46.9462 58.6461 50.8216 57.0199C53.51 55.8931 56.2121 54.7891 59.4178 54.473H59.427ZM61.6488 63.937C61.2423 64.7112 60.9329 65.1555 60.7573 65.6457C56.8819 76.4748 57.2976 87.0016 62.9237 97.2168C63.9214 99.0263 64.6559 99.0354 66.0508 97.6154C73.5569 89.9837 76.7949 80.7716 76.6794 70.2357C76.6563 68.2018 75.9311 66.5893 74.5084 65.1555C72.8224 63.456 70.4713 63.795 69.5244 66.0167C68.7207 67.904 68.6052 69.86 69.178 71.8344C69.7738 73.882 70.439 75.9113 71.0071 77.9681C71.6538 80.3181 71.6631 82.6452 70.4713 84.8577C70.0741 85.5952 69.4736 86.0854 68.5913 85.6685C67.7276 85.2654 67.5982 84.5233 68.0232 83.7446C69.3858 81.2389 68.6422 78.8156 67.6583 76.4794C66.5174 73.7675 65.5751 71.0602 66.037 68.0689C66.1525 67.3268 66.0462 66.9604 65.1501 66.9466C63.4041 66.9146 62.3602 65.8656 61.6535 63.9416L61.6488 63.937ZM62.5311 45.1327C61.404 44.1386 60.4525 43.3828 59.5979 42.5353C54.9742 37.9545 52.2674 32.4392 51.5053 25.9939C51.3898 25.0411 51.2466 24.0104 52.563 23.9096C53.7502 23.818 54.0781 24.7296 54.1289 25.742C54.1428 25.971 54.1659 26.2 54.2028 26.4245C55.3437 33.108 58.5679 38.5271 63.9722 42.7369C65.5797 43.9875 66.231 43.6072 66.9192 41.9581C67.4458 40.6984 67.9678 39.2783 68.9285 38.3988C70.3605 37.0841 70.2635 35.8107 69.6029 34.3402C65.649 25.5541 59.7134 18.5867 50.7847 14.4319C48.3042 13.2775 48.0594 13.4607 47.6714 16.1955C46.3319 25.6503 48.9047 34.1799 54.055 42.0406C56.9697 46.484 57.039 46.4428 62.5311 45.1327ZM76.5778 40.9412C78.9428 37.0383 81.7604 33.8455 85.2617 31.2848C86.0054 30.7397 86.8461 29.6952 87.8022 30.8954C88.7907 32.1368 87.696 32.8148 86.8368 33.4607C83.7882 35.7328 81.2893 38.495 79.3262 41.7337C77.9358 44.0333 77.9866 44.1386 80.7165 44.6654C83.1646 45.1327 85.8529 44.9448 87.6221 47.2261C88.084 47.8216 88.4766 47.2811 88.7491 47.0291C96.0704 40.2128 101.405 32.3475 102.135 22.0498C102.218 20.8542 101.951 20.4923 100.634 20.6664C90.6291 21.9994 82.9522 27.2536 76.5316 34.6242C74.065 37.4552 74.1158 37.501 76.5732 40.9458L76.5778 40.9412ZM79.5571 66.8413C89.1048 73.4239 98.9481 76.2732 110.034 74.0698C111.835 73.7125 112.053 72.9979 111.221 71.4725C106.251 62.3337 98.5185 56.6214 88.7445 53.3186C86.7075 52.6315 85.3587 53.0621 83.9222 54.6013C82.5133 56.1129 82.9614 56.484 84.6566 57.0199C89.1879 58.4538 93.1742 60.8633 96.5878 64.1523C97.3037 64.844 98.5601 65.5541 97.4608 66.7726C96.3568 67.9911 95.5716 66.8779 94.8002 66.1679C91.3774 63.03 87.5435 60.6022 82.8459 59.3149C82.7489 62.1871 84.0053 65.4853 79.5571 66.8413ZM76.5547 48.0552C73.6354 50.0113 71.275 49.173 68.6837 47.3269C69.2565 50.6205 68.4713 52.7827 65.2794 54.4364C68.7576 54.8853 70.4898 56.3466 71.0718 59.2737C72.513 56.2962 75.1135 56.0809 77.8619 56.1129C76.3899 53.5538 75.9542 50.8679 76.5547 48.0552ZM80.4301 54.56C81.1461 53.7721 81.8759 52.998 82.5826 52.2009C83.5526 51.1061 85.6543 50.1349 84.9568 48.7195C84.2547 47.2811 81.9729 47.6155 80.3331 47.3544C80.1807 47.3315 80.0283 47.336 79.8758 47.336C79.4463 47.3315 79.1321 47.4781 79.0906 47.9545C78.8873 50.2586 77.4416 52.7689 80.4301 54.5646V54.56ZM75.9865 45.6503C74.9796 43.96 73.9541 42.1963 72.8825 40.4648C72.5314 39.8922 72.0187 39.1043 71.275 39.828C69.9909 41.0786 69.5383 42.8422 68.7623 44.4089C68.7068 44.5188 68.8685 44.8716 68.9886 44.9082C71.2658 45.5449 73.3352 47.9682 75.9819 45.6503H75.9865ZM62.9838 53.9233C64.5127 51.7337 67.4227 50.4464 66.1155 47.1711C65.552 47.2994 64.9422 47.3773 64.3741 47.5788C62.7112 48.1743 59.9813 47.5513 59.5979 49.4478C59.2377 51.2298 61.6442 52.3933 62.9791 53.9233H62.9838ZM73.1042 61.2389C74.1989 61.6924 75.3168 62.1642 76.4438 62.6132C77.5386 63.0483 78.6702 64.331 79.7788 63.4881C80.7996 62.7139 80.1622 61.2435 80.019 60.0662C79.9728 59.6906 79.9035 59.3149 79.8481 58.9439C79.7927 58.5637 79.7419 58.1239 79.1922 58.2934C77.0166 58.9622 74.0142 57.8399 73.0996 61.2435L73.1042 61.2389ZM64.3602 62.068C64.5127 62.833 64.0092 64.0973 65.6444 64.0836C66.5312 64.0744 69.8616 62.0955 69.7785 61.6374C69.7554 61.5092 69.6168 61.3809 69.4967 61.2893C68.596 60.5884 68.3373 59.5394 68.0093 58.5408C67.5844 57.2581 66.4019 57.0703 65.4273 57.0932C64.1247 57.1253 64.8591 58.3484 64.7159 59.0355C64.5127 59.9929 64.4803 60.9824 64.3602 62.068Z" fill="#F7DC70"/>
<path d="M80.4764 54.56C81.1924 53.7721 81.9222 52.998 82.6289 52.2009C83.5989 51.1061 85.7006 50.1349 85.0031 48.7195C84.301 47.2811 82.0192 47.6155 80.3794 47.3544C80.227 47.3315 80.0745 47.336 79.9221 47.336C79.4925 47.3315 79.1784 47.4781 79.1369 47.9545C78.9336 50.2586 77.4878 52.7689 80.4764 54.5646V54.56ZM76.0328 45.6503C75.0259 43.96 74.0004 42.1963 72.9288 40.4648C72.5777 39.8922 72.065 39.1043 71.3213 39.828C70.0372 41.0786 69.5846 42.8422 68.8085 44.4089C68.7531 44.5188 68.9148 44.8716 69.0349 44.9082C71.3121 45.5449 73.3815 47.9682 76.0282 45.6503H76.0328ZM63.03 53.9233C64.559 51.7337 67.469 50.4464 66.1618 47.1711C65.5983 47.2994 64.9885 47.3773 64.4204 47.5788C62.7575 48.1743 60.0276 47.5513 59.6442 49.4478C59.2839 51.2298 61.6905 52.3933 63.0254 53.9233H63.03ZM73.1505 61.2389C74.2452 61.6924 75.3631 62.1642 76.4901 62.6132C77.5848 63.0483 78.7165 64.331 79.8251 63.4881C80.8459 62.7139 80.2085 61.2435 80.0653 60.0662C80.0191 59.6906 79.9498 59.3149 79.8944 58.9439C79.839 58.5637 79.7882 58.1239 79.2385 58.2934C77.0629 58.9622 74.0605 57.8399 73.1459 61.2435L73.1505 61.2389ZM64.4065 62.068C64.559 62.833 64.0555 64.0973 65.6906 64.0836C66.5775 64.0744 69.9079 62.0955 69.8247 61.6374C69.8016 61.5092 69.6631 61.3809 69.543 61.2893C68.6423 60.5884 68.3836 59.5394 68.0556 58.5408C67.6307 57.2581 66.4482 57.0703 65.4735 57.0932C64.171 57.1253 64.9054 58.3484 64.7622 59.0355C64.559 59.9929 64.5266 60.9824 64.4065 62.068Z" fill="#F2BE37"/>
<path d="M76.6102 48.0553C73.6909 50.0113 71.3306 49.173 68.7392 47.3269C69.312 50.6205 68.5268 52.7827 65.335 54.4364C68.8131 54.8853 70.5453 56.3466 71.1273 59.2737C72.5685 56.2962 75.169 56.0809 77.9174 56.113C76.4455 53.5538 76.0097 50.8679 76.6102 48.0553Z" fill="white"/>
<path d="M53.4127 45.7375C48.8075 39.3197 45.9159 32.5859 44.9644 25.1008C44.447 21.0467 44.7473 17.0523 45.7265 13.0715C46.2346 10.9918 47.3109 10.6711 49.1955 11.2758C56.4382 13.5937 61.935 18.1883 66.4248 24.1159C68.9745 27.4782 70.933 31.1842 72.7345 35.3298C74.8823 32.5172 77.0949 30.0344 79.64 27.8722C86.0375 22.4439 93.0862 18.5364 101.775 18.2204C103.826 18.1471 104.606 18.6785 104.569 20.8314C104.454 27.9409 101.996 34.235 98.158 40.0985C97.6638 40.8589 97.128 41.5918 96.5829 42.3889C97.479 42.8607 98.1349 42.2744 98.7816 42.0499C106.181 39.5121 113.567 36.9285 120.953 34.3403C121.859 34.0243 123.147 33.8136 122.741 32.4393C122.274 30.8681 121.004 31.4727 120.076 31.8896C116.551 33.4792 113.452 31.7568 113.595 28.2249C113.646 26.9011 114.251 25.8841 115.323 25.1466C118.736 22.8058 124.344 22.9615 127.508 25.4535C130.792 28.0463 131.924 32.7462 130.187 36.8965C129.392 38.7975 127.97 40.1626 126.131 41.12C125.517 41.4407 124.806 41.5277 125.198 42.7279C126.099 45.481 124.926 47.3591 122.122 48.3028C114.925 50.7306 107.733 53.1676 100.287 55.6871C101.96 57.0934 103.475 58.3211 104.934 59.6037C109.082 63.2455 112.348 67.5056 114.325 72.7049C114.981 74.4273 114.671 75.2747 112.805 75.8474C104.172 78.5134 95.8023 77.5743 87.5572 74.3174C84.7672 73.2134 82.1297 71.8208 79.3167 69.8694C79.0211 73.502 78.8871 76.8826 78.125 80.1762C76.3605 87.7759 73.1733 94.5967 67.2747 99.938C64.0736 102.842 63.4316 102.746 61.1082 99.173C57.9579 94.3219 56.2858 88.9486 55.9255 83.2408C55.6761 79.3013 55.8793 75.3389 55.8793 71.2299C53.2511 71.5826 50.7521 72.485 48.2486 73.3371C35.8139 77.5514 23.3839 81.7795 10.9447 85.9985C7.37871 87.2078 5.03682 85.9206 4.99525 82.7736C4.97677 81.1565 5.63731 79.9655 7.17085 79.3471C8.09467 78.9761 9.05545 78.6875 9.9885 78.3347C10.9631 77.9683 11.3327 77.4598 10.9909 76.2779C10.1502 73.3691 11.0093 71.8712 13.9147 70.8588C18.1135 69.3929 22.3261 67.982 26.936 66.4154C25.3886 65.4259 24.2154 64.6289 22.9959 63.9143C21.7303 63.1722 21.6287 62.3751 22.4555 61.1612C25.966 56.0031 30.7606 52.4209 36.3775 49.8511C41.6617 47.4324 47.2555 46.1818 53.4081 45.7375H53.4127ZM59.4776 54.5419C58.6554 53.1172 57.1357 52.311 57.0434 50.9734C56.8447 48.1699 55.0387 48.2386 53.0755 48.376C51.699 48.4722 50.3087 48.5593 48.9507 48.7837C40.1374 50.2404 32.3681 53.6852 26.2755 60.4191C24.9313 61.9033 25.2824 62.4759 26.8852 63.305C33.9155 66.9514 41.38 67.7301 49.0708 66.5803C53.5282 65.9161 58.4429 65.8245 60.6463 60.6664C61.0204 59.7961 62.3692 59.1456 61.7826 58.1195C61.1913 57.0842 59.8471 57.4415 58.794 57.437C57.2235 57.4278 55.7916 58.0279 54.3781 58.6325C52.8954 59.2693 51.4542 59.9885 49.9623 60.5977C45.939 62.2468 41.9943 61.862 38.1373 60.0251C37.2782 59.6174 36.3682 59.1319 36.9179 57.9683C37.3844 56.988 38.3129 57.0705 39.1074 57.4873C43.1167 59.5808 46.9968 58.715 50.8722 57.0888C53.5605 55.9619 56.2627 54.8579 59.4684 54.5419H59.4776ZM61.6994 64.0059C61.2929 64.78 60.9834 65.2244 60.8079 65.7145C56.9325 76.5436 57.3482 87.0704 62.9743 97.2857C63.972 99.0951 64.7065 99.1043 66.1014 97.6842C73.6075 90.0525 76.8455 80.8405 76.73 70.3045C76.7069 68.2706 75.9817 66.6582 74.559 65.2244C72.873 63.5249 70.5219 63.8639 69.575 66.0856C68.7713 67.9729 68.6558 69.9289 69.2286 71.9032C69.8244 73.9509 70.4896 75.9802 71.0577 78.037C71.7044 80.387 71.7136 82.714 70.5219 84.9266C70.1247 85.6641 69.5242 86.1542 68.6419 85.7374C67.7782 85.3343 67.6488 84.5922 68.0738 83.8134C69.4364 81.3077 68.6927 78.8844 67.7089 76.5482C66.5679 73.8364 65.6257 71.1291 66.0876 68.1378C66.203 67.3957 66.0968 67.0292 65.2007 67.0155C63.4547 66.9834 62.4108 65.9344 61.704 64.0105L61.6994 64.0059ZM62.5817 45.2015C61.4546 44.2075 60.5031 43.4516 59.6485 42.6042C55.0248 38.0233 52.318 32.508 51.5559 26.0628C51.4404 25.11 51.2972 24.0793 52.6136 23.9785C53.8007 23.8869 54.1287 24.7985 54.1795 25.8108C54.1934 26.0399 54.2165 26.2689 54.2534 26.4934C55.3943 33.1768 58.6185 38.5959 64.0228 42.8057C65.6303 44.0563 66.2816 43.6761 66.9698 42.027C67.4964 40.7673 68.0183 39.3472 68.9791 38.4677C70.411 37.153 70.314 35.8795 69.6535 34.4091C65.6996 25.623 59.764 18.6555 50.8353 14.5007C48.3548 13.3464 48.11 13.5296 47.722 16.2643C46.3825 25.7192 48.9553 34.2487 54.1056 42.1095C57.0203 46.5529 57.0895 46.5116 62.5817 45.2015ZM76.6284 41.0101C78.9934 37.1072 81.811 33.9143 85.3123 31.3536C86.056 30.8085 86.8966 29.7641 87.8528 30.9643C88.8413 32.2057 87.7466 32.8836 86.8874 33.5295C83.8388 35.8016 81.3399 38.5639 79.3767 41.8025C77.9864 44.1021 78.0372 44.2075 80.7671 44.7343C83.2152 45.2015 85.9035 45.0137 87.6727 47.295C88.1346 47.8905 88.5272 47.3499 88.7997 47.098C96.121 40.2817 101.456 32.4164 102.186 22.1187C102.269 20.9231 102.001 20.5612 100.685 20.7353C90.6797 22.0683 83.0027 27.3225 76.5822 34.6931C74.1156 37.524 74.1664 37.5698 76.6237 41.0146L76.6284 41.0101ZM79.6077 66.9101C89.1554 73.4928 98.9987 76.3421 110.085 74.1387C111.886 73.7814 112.103 73.0668 111.272 71.5414C106.302 62.4026 98.5691 56.6903 88.7951 53.3875C86.7581 52.7004 85.4093 53.131 83.9727 54.6701C82.5639 56.1818 83.012 56.5528 84.7072 57.0888C89.2385 58.5226 93.2248 60.9321 96.6383 64.2212C97.3543 64.9129 98.6107 65.6229 97.5114 66.8414C96.4074 68.0599 95.6221 66.9468 94.8507 66.2367C91.428 63.0989 87.5941 60.671 82.8965 59.3838C82.7995 62.256 84.0559 65.5542 79.6077 66.9101ZM89.003 50.6207C89.7282 51.0284 90.1854 50.5978 90.6658 50.4374C96.6245 48.431 102.579 46.4154 108.533 44.3907C113.687 42.6363 118.865 40.9459 123.974 39.0632C127.582 37.7348 129.194 34.2671 128.242 30.4924C127.485 27.492 123.937 25.339 120.445 25.8704C119.323 26.0399 118.223 26.4567 117.147 26.8553C116.288 27.1759 115.664 27.7943 116.122 28.8021C116.524 29.6862 117.272 29.9748 118.223 29.6633C119.387 29.2877 120.501 28.738 121.78 28.8021C123.96 28.9121 125.143 30.1672 125.586 32.1461C125.988 33.9418 124.773 35.8291 122.949 36.4384C114.588 39.2327 106.269 42.1461 97.8485 44.7526C94.2734 45.8566 91.3495 47.611 89.003 50.6207ZM51.93 69.2326C48.4472 69.6861 44.8397 69.2326 41.44 70.3458C30.7144 73.8455 20.1367 77.7942 9.32335 81.0329C8.43187 81.2986 7.04613 81.4818 7.42028 82.8377C7.83138 84.3173 9.05544 83.7951 10.0947 83.4424C14.7462 81.8574 19.3976 80.2862 24.0491 78.7058C33.3427 75.5496 42.6364 72.3888 51.93 69.2326ZM94.2456 52.4484C95.6221 53.36 96.6522 54.1387 98.2365 53.589C105.849 50.9413 113.489 48.3806 121.115 45.7695C121.965 45.481 123.152 45.2336 122.713 43.9922C122.279 42.7599 121.212 43.2913 120.353 43.5799C114.676 45.4855 108.994 47.3912 103.322 49.3151C100.361 50.3183 97.4097 51.3582 94.2456 52.4484ZM76.6053 48.1195C73.686 50.0755 71.3256 49.2372 68.7343 47.3912C69.3071 50.6848 68.5218 52.8469 65.33 54.5006C68.8082 54.9496 70.5404 56.4108 71.1224 59.338C72.5635 56.3605 75.1641 56.1452 77.9125 56.1772C76.4405 53.6181 76.0048 50.9322 76.6053 48.1195ZM35.0472 69.2372C32.7468 68.7425 31.338 67.4232 29.4257 68.0737C24.4971 69.7502 19.5501 71.3719 14.6215 73.0439C13.6422 73.3737 12.6306 73.873 13.1387 75.1556C13.6053 76.3283 14.6353 76.278 15.6746 75.9206C19.296 74.6747 22.922 73.4378 26.5434 72.1918C29.1901 71.2803 31.8323 70.3549 35.0472 69.2372ZM80.4807 54.6243C81.1967 53.8364 81.9265 53.0622 82.6332 52.2652C83.6032 51.1704 85.7049 50.1992 85.0074 48.7837C84.3053 47.3454 82.0235 47.6798 80.3837 47.4186C80.2313 47.3957 80.0788 47.4003 79.9264 47.4003C79.4968 47.3957 79.1827 47.5423 79.1412 48.0187C78.9379 50.3229 77.4921 52.8332 80.4807 54.6289V54.6243ZM76.0371 45.7146C75.0302 44.0242 74.0047 42.2606 72.9331 40.5291C72.582 39.9565 72.0693 39.1686 71.3256 39.8923C70.0415 41.1429 69.5888 42.9065 68.8128 44.4732C68.7574 44.5831 68.9191 44.9358 69.0392 44.9725C71.3164 45.6092 73.3857 48.0325 76.0325 45.7146H76.0371ZM63.0343 53.9876C64.5633 51.7979 67.4733 50.5107 66.1661 47.2354C65.6026 47.3637 64.9928 47.4416 64.4247 47.6431C62.7618 48.2386 60.0319 47.6156 59.6485 49.5121C59.2882 51.294 61.6948 52.4576 63.0297 53.9876H63.0343ZM73.1548 61.3032C74.2495 61.7567 75.3673 62.2285 76.4944 62.6774C77.5891 63.1126 78.7208 64.3952 79.8294 63.5524C80.8502 62.7782 80.2128 61.3078 80.0696 60.1305C80.0234 59.7549 79.9541 59.3792 79.8987 59.0082C79.8433 58.628 79.7924 58.1882 79.2428 58.3577C77.0672 59.0265 74.0648 57.9042 73.1502 61.3078L73.1548 61.3032ZM64.4108 62.1323C64.5633 62.8973 64.0598 64.1616 65.6949 64.1479C66.5818 64.1387 69.9122 62.1598 69.829 61.7017C69.8059 61.5734 69.6674 61.4452 69.5473 61.3536C68.6466 60.6527 68.3879 59.6037 68.0599 58.6051C67.635 57.3224 66.4525 57.1346 65.4778 57.1575C64.1753 57.1896 64.9097 58.4127 64.7665 59.0998C64.5633 60.0572 64.5309 61.0467 64.4108 62.1323Z" fill="#333333"/>
<path d="M89.003 50.6205C89.7282 51.0282 90.1855 50.5976 90.6659 50.4373C96.6245 48.4308 102.579 46.4153 108.533 44.3905C113.688 42.6361 118.866 40.9457 123.974 39.063C127.582 37.7346 129.194 34.2669 128.242 30.4923C127.485 27.4918 123.937 25.3388 120.445 25.8702C119.323 26.0397 118.223 26.4565 117.147 26.8551C116.288 27.1757 115.665 27.7942 116.122 28.8019C116.524 29.686 117.272 29.9746 118.223 29.6631C119.387 29.2875 120.501 28.7378 121.78 28.8019C123.96 28.9119 125.143 30.167 125.586 32.146C125.988 33.9416 124.773 35.8289 122.949 36.4382C114.588 39.2325 106.269 42.1459 97.8486 44.7524C94.2734 45.8564 91.3495 47.6109 89.003 50.6205ZM51.9301 69.2324C48.4473 69.6859 44.8397 69.2324 41.4401 70.3456C30.7145 73.8454 20.1368 77.794 9.32342 81.0327C8.43194 81.2984 7.0462 81.4816 7.42035 82.8375C7.83145 84.3172 9.05552 83.7949 10.0948 83.4422C14.7463 81.8572 19.3977 80.286 24.0491 78.7056C33.3428 75.5494 42.6364 72.3886 51.9301 69.2324ZM94.2457 52.4482C95.6222 53.3598 96.6523 54.1386 98.2366 53.5889C105.849 50.9411 113.489 48.3805 121.115 45.7694C121.965 45.4808 123.152 45.2334 122.713 43.992C122.279 42.7598 121.212 43.2911 120.353 43.5797C114.676 45.4854 108.995 47.391 103.322 49.3149C100.361 50.3181 97.4098 51.358 94.2457 52.4482ZM35.0518 69.237C32.7515 68.7423 31.3427 67.423 29.4304 68.0735C24.5018 69.7501 19.5547 71.3717 14.6262 73.0437C13.6469 73.3735 12.6353 73.8728 13.1434 75.1555C13.61 76.3282 14.64 76.2778 15.6793 75.9205C19.3007 74.6745 22.9267 73.4377 26.5481 72.1917C29.1948 71.2801 31.837 70.3547 35.0518 69.237Z" fill="#604C3F"/>
</g>
<g clip-path="url(#clip1_472_214)">
<path d="M45.9154 172.971C55.1022 169.247 66.2883 170.522 74.1393 176.19C80.258 180.608 88.3589 186.284 96.7528 184.17C105.224 182.038 110.636 175.848 120.357 180.325C126.657 183.228 130.621 190.479 128.613 196.892C128.208 198.193 127.579 199.452 127.364 200.788C127.054 202.68 127.588 204.589 127.614 206.498C127.726 213.827 121.504 216.019 115.954 219.152C109.852 222.594 108.792 225.454 106.25 231.55C103.535 238.065 94.4087 240.659 87.5143 238.296C80.6114 235.933 75.8284 229.906 72.8983 223.545C71.5022 220.522 70.4249 217.149 71.2953 213.921C72.0537 211.113 76.7074 206.558 79.9909 206.558C81.9644 206.558 83.7828 207.449 85.5236 208.313C85.2564 209.606 84.9893 210.967 85.3943 212.226C86.7301 216.344 91.6596 213.305 92.3318 210.497C93.2108 206.824 87.6953 203.091 84.929 201.687C82.1109 200.257 79.017 199.007 75.8025 199.212C68.6065 199.675 64.2631 206.764 60.6952 212.723C57.1274 218.69 51.0173 225.197 44.0712 223.459C34.083 220.95 34.1778 211.37 21.9661 217.389C18.1053 219.289 14.3651 221.772 10.0561 222.217C5.74713 222.663 0.705624 219.966 0.869365 215.873C2.12759 217.098 4.2907 217.106 5.96258 216.421C7.64308 215.728 8.97887 214.478 10.3577 213.33C14.2617 210.103 18.8292 207.594 23.7156 205.976C25.6977 205.325 27.766 204.803 29.4896 203.673C35.1171 200 30.2394 196.293 30.0239 191.798C29.6447 183.741 38.616 175.933 45.9068 172.979L45.9154 172.971Z" fill="#323333" stroke="#040000" stroke-width="2.66638" stroke-miterlimit="10"/>
</g>
<g clip-path="url(#clip2_472_214)">
<path d="M224.019 23.269C218.098 23.269 213.331 23.3647 208.564 23.2211C206.843 23.1733 205.065 22.7427 203.431 22.1495C199.366 20.6856 198.962 19.0878 201.961 16.0356C211.851 5.96998 223.798 4.87923 236.524 8.91694C240.099 10.046 242.233 10.2373 244.29 6.67802C245.51 4.55391 247.75 2.97519 249.672 1.31035C250.691 0.420525 252.036 -0.832887 253.372 0.812814C254.757 2.51592 253.113 3.31964 252.017 4.18076C248.048 7.29037 244.982 11.0984 242.944 15.7102C241.858 18.1597 242.175 19.4705 245.328 19.4992C247.163 19.5183 248.701 19.1834 250.354 18.4467C260.966 13.6818 270.625 16.0547 279.583 22.6375C283.254 25.3261 285.061 29.2299 285.686 33.6312C286.244 37.5732 286.609 41.5344 287.051 45.4955C287.445 49.007 287.926 52.5472 290.521 55.2166C296.614 61.4741 294.413 72.0659 286.148 77.3666C279.689 81.5096 272.595 81.7488 265.329 80.3136C263.301 79.9117 262.196 79.7299 261.965 82.476C260.927 95.0962 251.056 101.574 238.456 98.0623C231.343 96.0817 225.961 91.6039 221.972 85.643C212.754 71.8459 208.583 56.891 212.533 40.3384C214.129 33.6407 217.743 28.1678 224.019 23.2881V23.269ZM261.1 41.7736C261.206 31.1243 257.525 25.8524 248.509 23.7378C242.108 22.2356 242.06 22.2452 241.973 28.8758C241.954 30.1293 241.714 31.1913 240.359 31.3348C239.263 31.4497 238.705 30.5407 238.465 29.5552C238.196 28.474 237.783 27.3737 237.831 26.302C237.975 23.2881 236.639 22.9915 234.005 23.556C225.009 25.4696 219.338 30.8947 216.57 39.4581C214.321 46.4332 214.215 53.5422 215.599 60.6895C217.858 72.3625 222.203 82.9831 231.833 90.6758C237.312 95.0484 243.54 96.3209 250.306 94.1011C256.746 91.9961 259.36 87.968 258.38 81.3852C257.602 76.1802 257.429 70.9465 257.775 65.7319C258.303 57.6756 261.062 49.9064 261.1 41.764V41.7736ZM254.17 21.2119C260.706 24.8286 263.984 29.8709 264.551 36.4729C264.945 41.0751 264.877 45.6869 264.089 50.27C262.869 57.446 260.735 64.5263 261.446 71.932C261.59 73.3959 261.177 74.965 263.186 75.9314C269.558 79.0028 281.236 77.3666 286.282 72.4582C290.194 68.6502 291.741 63.0624 288.829 59.5605C283.975 53.7049 283.245 46.9594 282.812 39.9174C281.928 25.307 269.625 16.8584 254.17 21.2214V21.2119ZM205.373 18.9251C216.628 20.944 226.893 18.8103 237.273 13.9019C228.258 7.88359 210.198 10.6296 205.373 18.9251Z" fill="#333333"/>
<path d="M261.1 41.7738C261.052 49.9066 258.294 57.6759 257.765 65.7417C257.428 70.9563 257.592 76.19 258.37 81.395C259.351 87.9683 256.736 91.9964 250.297 94.1109C243.521 96.3307 237.302 95.0582 231.824 90.6856C222.193 82.9929 217.849 72.3819 215.59 60.6994C214.206 53.5616 214.312 46.443 216.561 39.4679C219.329 30.895 224.99 25.4795 233.996 23.5659C236.629 23.0013 237.965 23.2979 237.821 26.3119C237.773 27.3835 238.186 28.4934 238.455 29.565C238.696 30.5409 239.244 31.4595 240.349 31.3447C241.704 31.2011 241.954 30.1391 241.964 28.8857C242.05 22.255 242.089 22.2359 248.499 23.7476C257.515 25.8717 261.196 31.1342 261.1 41.7834V41.7738Z" fill="#F7DC70"/>
<path d="M254.17 21.2216C269.625 16.8586 281.918 25.3072 282.812 39.9176C283.245 46.9692 283.975 53.7147 288.829 59.5607C291.741 63.0722 290.194 68.6599 286.282 72.4584C281.236 77.3668 269.558 79.003 263.185 75.9316C261.186 74.9652 261.59 73.3961 261.446 71.9322C260.744 64.5265 262.868 57.4558 264.089 50.2702C264.867 45.6871 264.944 41.0753 264.55 36.4731C263.983 29.8711 260.715 24.8383 254.17 21.2121V21.2216Z" fill="#A8C66A"/>
<path d="M205.382 18.9349C210.207 10.6394 228.258 7.89339 237.283 13.9117C226.902 18.8296 216.647 20.9538 205.382 18.9349Z" fill="#8DC483"/>
</g>
<g clip-path="url(#clip3_472_214)">
<path d="M286.938 221.864C279.45 230.765 269.171 235.911 258.444 237.723C257.749 237.838 257.045 237.945 256.34 238.036C253.383 238.415 250.401 238.546 247.453 238.439C244.852 238.349 242.276 238.085 239.708 237.682C238.996 237.575 238.283 237.443 237.571 237.311C226.654 235.244 216.093 230.625 206.053 225.149C216.672 223.083 226.09 214.223 229.967 202.67C223.001 203.617 215.753 201.559 209.98 196.972C220.242 193.234 229.188 184.893 234.481 174.106C227.474 174.756 220.276 171.891 215.115 166.399C230.091 161.763 242.88 148.629 248.571 132.046C252.456 149.28 264.002 162.487 277.636 165.271C274.431 172.451 266.603 176.42 259.828 174.295C263.356 185.057 272.542 193.061 282.507 194.049C278.167 200.793 270.505 204.482 263.282 203.304C268.732 212.642 277.388 219.427 286.938 221.856V221.864Z" fill="#00633E"/>
<path d="M287.949 221.543C287.833 221.197 287.56 220.933 287.203 220.851C278.523 218.644 270.637 212.757 265.294 204.564C272.227 204.811 279.293 201.007 283.401 194.617C283.6 194.312 283.625 193.925 283.459 193.596C283.302 193.267 282.979 193.044 282.615 193.011C273.561 192.114 265.27 185.271 261.476 175.761C262.172 175.868 262.876 175.917 263.588 175.917C269.701 175.917 275.806 171.957 278.605 165.699C278.738 165.411 278.721 165.081 278.581 164.793C278.432 164.513 278.166 164.307 277.852 164.241C264.723 161.557 253.367 148.531 249.606 131.815C249.507 131.354 249.109 131.016 248.637 131C248.165 130.975 247.734 131.264 247.577 131.708C242.002 147.954 229.453 160.865 214.817 165.394C214.469 165.501 214.204 165.781 214.113 166.127C214.022 166.473 214.113 166.843 214.361 167.107C219.224 172.286 225.9 175.242 232.551 175.242H232.725C227.474 185.016 219.132 192.526 209.623 195.984C209.267 196.116 209.002 196.429 208.944 196.799C208.886 197.17 209.035 197.548 209.334 197.787C214.361 201.781 220.524 203.938 226.654 203.938C227.242 203.938 227.83 203.913 228.418 203.881C224.367 214.346 215.662 222.21 205.863 224.12C205.424 224.211 205.093 224.557 205.026 224.993C204.96 225.429 205.175 225.858 205.556 226.072C217.509 232.593 227.623 236.496 237.38 238.349C237.471 238.365 237.554 238.382 237.645 238.398C238.341 238.53 238.971 238.629 239.55 238.728C239.625 238.744 239.7 238.752 239.782 238.76C242.35 239.164 244.918 239.411 247.428 239.502C248.09 239.526 248.753 239.534 249.416 239.534C251.752 239.534 254.087 239.386 256.374 239.098C256.415 239.098 256.448 239.098 256.489 239.082C257.152 238.991 257.823 238.892 258.477 238.785C258.527 238.785 258.577 238.769 258.635 238.76C270.455 236.76 280.527 231.152 287.767 222.539C287.999 222.267 288.073 221.889 287.965 221.543H287.949ZM258.428 236.661C258.378 236.669 258.328 236.685 258.27 236.694C257.633 236.801 256.978 236.9 256.324 236.982C256.291 236.982 256.249 236.99 256.208 236.998C253.342 237.369 250.41 237.501 247.494 237.394C245.001 237.303 242.441 237.056 239.873 236.644C239.799 236.628 239.724 236.62 239.642 236.611C239.078 236.521 238.457 236.414 237.778 236.282C237.687 236.265 237.596 236.249 237.505 236.224C228.708 234.528 219.572 231.103 208.961 225.503C218.843 222.514 227.308 213.943 230.977 202.991C231.093 202.645 231.019 202.267 230.787 201.995C230.555 201.715 230.19 201.575 229.834 201.624C223.763 202.448 217.41 200.867 212.142 197.252C221.916 193.143 230.331 184.967 235.442 174.559C235.608 174.221 235.583 173.818 235.359 173.505C235.144 173.192 234.771 173.019 234.39 173.06C228.244 173.628 221.891 171.323 217.078 166.852C230.679 162.035 242.35 150.326 248.38 135.553C250.492 142.865 254.005 149.461 258.651 154.764C263.671 160.503 269.685 164.365 276.104 165.995C272.832 171.965 266.057 175.143 260.151 173.299C259.77 173.184 259.364 173.282 259.082 173.562C258.8 173.842 258.701 174.246 258.825 174.625C262.296 185.205 270.927 193.135 280.66 194.856C276.452 200.348 269.726 203.296 263.456 202.275C263.05 202.209 262.652 202.382 262.412 202.72C262.172 203.057 262.163 203.494 262.371 203.839C267.663 212.905 275.864 219.6 285.058 222.424C278.274 229.917 269.096 234.825 258.428 236.661Z" fill="#333333"/>
<path d="M256.448 256.571C256.241 256.859 255.76 256.95 254.833 256.867C249.739 256.423 244.603 255.69 239.559 254.693C240.006 249.037 240.056 243.339 239.708 237.673C242.275 238.077 244.852 238.34 247.452 238.431C250.401 238.538 253.383 238.406 256.34 238.028L256.68 254.924C256.68 255.435 256.705 256.209 256.448 256.563V256.571Z" fill="#5D3B1B"/>
<path d="M258.171 257.79C257.434 258.819 256.282 259 255.421 259C255.114 259 254.849 258.975 254.65 258.959C249.167 258.481 243.634 257.674 238.225 256.563C237.703 256.456 237.339 255.978 237.388 255.443C237.885 249.778 237.968 244.063 237.645 238.382C237.62 238.019 237.604 237.657 237.579 237.303C237.554 236.941 237.529 236.578 237.496 236.216C237.587 236.241 237.678 236.249 237.769 236.274C238.449 236.405 239.07 236.512 239.633 236.603C239.658 236.957 239.683 237.319 239.708 237.674C239.732 238.028 239.749 238.39 239.774 238.744C240.055 244.055 239.981 249.391 239.567 254.694C244.611 255.69 249.747 256.423 254.841 256.867C255.769 256.95 256.249 256.867 256.456 256.571C256.713 256.209 256.696 255.443 256.688 254.932L256.365 239.09L256.34 238.036L256.315 236.982C256.97 236.9 257.624 236.801 258.262 236.694C258.312 236.694 258.361 236.677 258.419 236.661L258.444 237.723L258.469 238.785L258.8 254.891C258.817 255.682 258.842 256.867 258.179 257.79H258.171Z" fill="#333333"/>
</g>
<defs>
<clipPath id="clip0_472_214">
<rect width="126" height="91" fill="white" transform="translate(5 11)"/>
</clipPath>
<clipPath id="clip1_472_214">
<rect width="130" height="70" fill="white" transform="translate(0 170)"/>
</clipPath>
<clipPath id="clip2_472_214">
<rect width="94" height="99" fill="white" transform="translate(200)"/>
</clipPath>
<clipPath id="clip3_472_214">
<rect width="83" height="128" fill="white" transform="translate(205 131)"/>
</clipPath>
</defs>
</svg>
