<svg width="331" height="40" viewBox="0 0 331 40" fill="none" xmlns="http://www.w3.org/2000/svg">
<path d="M309.32 34.3787H306.941V5.5684H309.32V3.24082H311.698V0.861508H325.36V3.24082H327.789V5.5684H330.117V34.3787H327.789V36.7581H325.36V39.1374H311.698V36.7581H309.32V34.3787ZM311.698 34.3787H314.076V36.7581H322.931V34.3787H325.36V5.62013H322.931V3.24082H314.076V5.62013H311.698V34.3787Z" fill="#363532"/>
<path fill-rule="evenodd" clip-rule="evenodd" d="M306.099 35.2414V4.7069H308.477V2.37931H310.855V0H326.204V2.37931H328.633V4.7069H330.961V35.2414H328.633V37.6207H326.204V40H310.855V37.6207H308.477V35.2414H306.099ZM309.32 34.3787V36.7581H311.698V39.1374H325.36V36.7581H327.789V34.3787H330.117V5.5684H327.789V3.24082H325.36V0.861508H311.698V3.24082H309.32V5.5684H306.941V34.3787H309.32ZM314.92 33.5172V35.8966H322.089V33.5172H324.517V6.48276H322.089V4.10345H314.92V6.48276H312.542V33.5172H314.92ZM311.698 5.62013H314.076V3.24082H322.931V5.62013H325.36V34.3787H322.931V36.7581H314.076V34.3787H311.698V5.62013Z" fill="#363532"/>
<path d="M273.096 36.7581V3.24082H275.575V0.861508H289.035V3.24082H291.616V5.62013H293.893V7.94772H296.271V32.0512H293.893V34.3787H291.616V36.7581H289.035V39.1374H275.575V36.7581H273.096ZM277.852 36.7581H286.606V34.3787H289.035V31.9994H291.413V7.99944H289.035V5.62013H286.606V3.24082H277.852V36.7581Z" fill="#363532"/>
<path fill-rule="evenodd" clip-rule="evenodd" d="M272.253 37.6207V2.37931H274.732V0H289.879V2.37931H292.46V4.75862H294.737V7.08621H297.115V32.9138H294.737V35.2414H292.46V37.6207H289.879V40H274.732V37.6207H272.253ZM275.575 36.7581V39.1374H289.035V36.7581H291.616V34.3787H293.893V32.0512H296.271V7.94772H293.893V5.62013H291.616V3.24082H289.035V0.861508H275.575V3.24082H273.096V36.7581H275.575ZM285.763 33.5172H288.192V31.1379H290.57V8.86207H288.192V6.48276H285.763V4.10345H278.696V35.8966H285.763V33.5172ZM286.606 36.7581H277.852V3.24082H286.606V5.62013H289.035V7.99944H291.413V31.9994H289.035V34.3787H286.606V36.7581Z" fill="#363532"/>
<path d="M239.618 34.2753H244.476V36.7581H242.047V39.1374H224.691V36.6029H222.161V3.24082H224.691V0.861508H242.149V3.24082H227.171V17.6201H240.631V20.1029H227.171V36.6029H239.618V34.2753Z" fill="#363532"/>
<path fill-rule="evenodd" clip-rule="evenodd" d="M238.776 33.4138H245.32V37.6207H242.891V40H223.848V37.4655H221.318V2.37931H223.848V0H242.992V4.10345H228.015V16.7586H241.474V20.9655H228.015V35.7414H238.776V33.4138ZM239.618 36.6029H227.171V20.1029H240.631V17.6201H227.171V3.24082H242.149V0.861508H224.691V3.24082H222.161V36.6029H224.691V39.1374H242.047V36.7581H244.476V34.2753H239.618V36.6029Z" fill="#363532"/>
<path d="M172.801 29.2063V0.861508H177.557L177.608 29.2063H179.885V32.827H182.415V36.4477H184.945V32.827H187.323V29.2063H189.55V0.861508H194.003V29.2063H196.229V32.827H198.607V36.4477H201.137V32.827H203.667V29.2063H205.944L205.995 0.861508H210.752V29.2063H208.474V32.827H205.944V36.4477H203.667V39.1374H196.33V36.4477H193.75V32.827H189.803V36.4477H187.222V39.1374H179.885V36.4477H177.608V32.827H175.078V29.2063H172.801Z" fill="#363532"/>
<path fill-rule="evenodd" clip-rule="evenodd" d="M171.958 30.069V0H178.4L178.45 28.3448H180.729V31.9655H183.259V35.5862H184.102V31.9655H186.48V28.3448H188.707V0H194.847V28.3448H197.073V31.9655H199.451V35.5862H200.295V31.9655H202.825V28.3448H205.103L205.154 0H211.595V30.069H209.318V33.6897H206.788V37.3103H204.511V40H195.487V37.3103H192.907V33.6897H190.647V37.3103H188.066V40H179.042V37.3103H176.765V33.6897H174.235V30.069H171.958ZM175.078 29.2063V32.827H177.608V36.4477H179.885V39.1374H187.222V36.4477H189.803V32.827H193.75V36.4477H196.33V39.1374H203.667V36.4477H205.944V32.827H208.474V29.2063H210.752V0.861508H205.995L205.944 29.2063H203.667V32.827H201.137V36.4477H198.607V32.827H196.229V29.2063H194.003V0.861508H189.55V29.2063H187.323V32.827H184.945V36.4477H182.415V32.827H179.885V29.2063H177.608L177.557 0.861508H172.801V29.2063H175.078Z" fill="#363532"/>
<path d="M144.187 3.29254H133.865V39.1374H128.906V3.29254H118.685V0.861508H144.187V3.29254Z" fill="#363532"/>
<path fill-rule="evenodd" clip-rule="evenodd" d="M145.031 4.15517H134.709V40H128.063V4.15517H117.842V0H145.031V4.15517ZM128.906 3.29254V39.1374H133.865V3.29254H144.187V0.861508H118.685V3.29254H128.906Z" fill="#363532"/>
<path d="M108.144 10.8443H110.573V39.1374H105.766V23.7753H91.395V39.1374H86.5879V10.8443H89.0168V7.22358H91.5468V3.60289H93.925V0.861508H103.236V3.60289H105.614V7.22358H108.144V10.8443ZM91.395 21.4994H105.766V10.8443H103.134V7.22358H100.655V3.60289H96.5057V7.22358H94.0262V10.8443H91.395V21.4994Z" fill="#363532"/>
<path fill-rule="evenodd" clip-rule="evenodd" d="M111.417 9.98276V40H104.923V24.6379H92.2389V40H85.7451V9.98276H88.174V6.36207H90.704V2.74138H93.0823V0H104.08V2.74138H106.458V6.36207H108.988V9.98276H111.417ZM105.614 7.22358V3.60289H103.236V0.861508H93.925V3.60289H91.5468V7.22358H89.0168V10.8443H86.5879V39.1374H91.395V23.7753H105.766V39.1374H110.573V10.8443H108.144V7.22358H105.614ZM102.292 11.7069V8.08621H99.8122V4.46552H97.3496V8.08621H94.8701V11.7069H92.2389V20.6379H104.923V11.7069H102.292ZM105.766 21.4994H91.395V10.8443H94.0262V7.22358H96.5057V3.60289H100.655V7.22358H103.134V10.8443H105.766V21.4994Z" fill="#363532"/>
<path d="M70.9467 0.861508H75.7031V39.1374H70.9467V20.1029H56.4242V39.1374H51.6677V3.1891H49.3907V0.861508H54.0965V3.1891H56.4242V17.827H70.9467V0.861508Z" fill="#363532"/>
<path fill-rule="evenodd" clip-rule="evenodd" d="M70.1039 0H76.547V40H70.1039V20.9655H57.2681V40H50.8249V4.05173H48.5479V0H54.9404V2.32759H57.2681V16.9655H70.1039V0ZM70.9467 17.827H56.4242V3.1891H54.0965V0.861508H49.3907V3.1891H51.6677V39.1374H56.4242V20.1029H70.9467V39.1374H75.7031V0.861508H70.9467V17.827Z" fill="#363532"/>
<path d="M1.80276 29.2063V0.861508H6.55925L6.60985 29.2063H8.88689V32.827H11.4169V36.4477H13.947V32.827H16.3252V29.2063H18.5517V0.861508H23.0046V29.2063H25.231V32.827H27.6092V36.4477H30.1393V32.827H32.6693V29.2063H34.9464L34.997 0.861508H39.7535V29.2063H37.4764V32.827H34.9464V36.4477H32.6693V39.1374H25.3322V36.4477H22.7516V32.827H18.8047V36.4477H16.224V39.1374H8.88689V36.4477H6.60985V32.827H4.0798V29.2063H1.80276Z" fill="#363532"/>
<path fill-rule="evenodd" clip-rule="evenodd" d="M0.959961 30.069V0H7.40161L7.45221 28.3448H9.73079V31.9655H12.2608V35.5862H13.1042V31.9655H15.4824V28.3448H17.7089V0H23.8485V28.3448H26.0749V31.9655H28.4531V35.5862H29.2965V31.9655H31.8265V28.3448H34.1051L34.1557 0H40.5974V30.069H38.3203V33.6897H35.7903V37.3103H33.5132V40H24.4894V37.3103H21.9088V33.6897H19.6486V37.3103H17.0679V40H8.04409V37.3103H5.76705V33.6897H3.237V30.069H0.959961ZM4.0798 29.2063V32.827H6.60985V36.4477H8.88689V39.1374H16.224V36.4477H18.8047V32.827H22.7516V36.4477H25.3322V39.1374H32.6693V36.4477H34.9464V32.827H37.4764V29.2063H39.7535V0.861508H34.997L34.9464 29.2063H32.6693V32.827H30.1393V36.4477H27.6092V32.827H25.231V29.2063H23.0046V0.861508H18.5517V29.2063H16.3252V32.827H13.947V36.4477H11.4169V32.827H8.88689V29.2063H6.60985L6.55925 0.861508H1.80276V29.2063H4.0798Z" fill="#363532"/>
</svg>
