<svg width="24" height="24" viewBox="0 0 24 24" fill="none" xmlns="http://www.w3.org/2000/svg">
<g id="star (1) 1">
<path id="Vector" d="M17.1744 20.8018C17.0481 20.8023 16.9249 20.7629 16.8223 20.6893L11.9991 17.1925L7.17585 20.6893C7.0728 20.764 6.94866 20.804 6.82136 20.8036C6.69407 20.8031 6.57022 20.7622 6.46772 20.6867C6.36522 20.6112 6.28938 20.5051 6.25117 20.3836C6.21296 20.2622 6.21436 20.1318 6.25515 20.0112L8.13629 14.4394L3.26094 11.0961C3.15534 11.0237 3.07564 10.9195 3.03348 10.7987C2.99132 10.6778 2.98892 10.5466 3.02662 10.4243C3.06432 10.302 3.14016 10.1949 3.24304 10.1188C3.34592 10.0426 3.47046 10.0013 3.59847 10.001H9.61314L11.4283 4.41498C11.4674 4.29438 11.5437 4.18926 11.6462 4.11471C11.7488 4.04016 11.8723 4 11.9991 4C12.1258 4 12.2494 4.04016 12.3519 4.11471C12.4545 4.18926 12.5308 4.29438 12.5699 4.41498L14.385 10.0029H20.3997C20.5278 10.0028 20.6526 10.0438 20.7558 10.1198C20.859 10.1958 20.9352 10.3029 20.9731 10.4253C21.011 10.5477 21.0088 10.679 20.9667 10.8001C20.9246 10.9211 20.8448 11.0255 20.7391 11.098L15.8618 14.4394L17.7418 20.0097C17.7723 20.0999 17.7809 20.196 17.7668 20.2902C17.7528 20.3843 17.7166 20.4738 17.6611 20.5512C17.6057 20.6286 17.5327 20.6916 17.448 20.7352C17.3634 20.7788 17.2696 20.8016 17.1744 20.8018Z" fill="#E9B457"/>
</g>
</svg>
