<svg width="1440" height="984" viewBox="0 0 1440 984" fill="none" xmlns="http://www.w3.org/2000/svg">
<g clip-path="url(#clip0_6673_4017)">
<rect width="1440" height="984" fill="#FAFAFA"/>
<circle cx="27" cy="29" r="4" fill="#FFF0BD"/>
<circle cx="27" cy="94" r="4" fill="#FFF0BD"/>
<circle cx="27" cy="159" r="4" fill="#FFF0BD"/>
<circle cx="27" cy="224" r="4" fill="#FFF0BD"/>
<circle cx="27" cy="289" r="4" fill="#FFF0BD"/>
<circle cx="27" cy="354" r="4" fill="#FFF0BD"/>
<circle cx="27" cy="419" r="4" fill="#FFF0BD"/>
<circle cx="27" cy="484" r="4" fill="#FFF0BD"/>
<circle cx="27" cy="549" r="4" fill="#FFF0BD"/>
<circle cx="27" cy="614" r="4" fill="#FFF0BD"/>
<circle cx="27" cy="679" r="4" fill="#FFF0BD"/>
<circle cx="27" cy="744" r="4" fill="#FFF0BD"/>
<circle cx="27" cy="809" r="4" fill="#FFF0BD"/>
<circle cx="27" cy="874" r="4" fill="#FFF0BD"/>
<circle cx="27" cy="939" r="4" fill="#FFF0BD"/>
<circle cx="85" cy="29" r="4" fill="#FFF0BD"/>
<circle cx="85" cy="94" r="4" fill="#FFF0BD"/>
<circle cx="85" cy="159" r="4" fill="#FFF0BD"/>
<circle cx="85" cy="224" r="4" fill="#FFF0BD"/>
<circle cx="85" cy="289" r="4" fill="#FFF0BD"/>
<circle cx="85" cy="354" r="4" fill="#FFF0BD"/>
<circle cx="85" cy="419" r="4" fill="#FFF0BD"/>
<circle cx="85" cy="484" r="4" fill="#FFF0BD"/>
<circle cx="85" cy="549" r="4" fill="#FFF0BD"/>
<circle cx="85" cy="614" r="4" fill="#FFF0BD"/>
<circle cx="85" cy="679" r="4" fill="#FFF0BD"/>
<circle cx="85" cy="744" r="4" fill="#FFF0BD"/>
<circle cx="85" cy="809" r="4" fill="#FFF0BD"/>
<circle cx="85" cy="874" r="4" fill="#FFF0BD"/>
<circle cx="85" cy="939" r="4" fill="#FFF0BD"/>
<circle cx="143" cy="29" r="4" fill="#FFF0BD"/>
<circle cx="143" cy="94" r="4" fill="#FFF0BD"/>
<circle cx="143" cy="159" r="4" fill="#FFF0BD"/>
<circle cx="143" cy="224" r="4" fill="#FFF0BD"/>
<circle cx="143" cy="289" r="4" fill="#FFF0BD"/>
<circle cx="143" cy="354" r="4" fill="#FFF0BD"/>
<circle cx="143" cy="419" r="4" fill="#FFF0BD"/>
<circle cx="143" cy="484" r="4" fill="#FFF0BD"/>
<circle cx="143" cy="549" r="4" fill="#FFF0BD"/>
<circle cx="143" cy="614" r="4" fill="#FFF0BD"/>
<circle cx="143" cy="679" r="4" fill="#FFF0BD"/>
<circle cx="143" cy="744" r="4" fill="#FFF0BD"/>
<circle cx="143" cy="809" r="4" fill="#FFF0BD"/>
<circle cx="143" cy="874" r="4" fill="#FFF0BD"/>
<circle cx="143" cy="939" r="4" fill="#FFF0BD"/>
<circle cx="201" cy="29" r="4" fill="#FFF0BD"/>
<circle cx="201" cy="94" r="4" fill="#FFF0BD"/>
<circle cx="201" cy="159" r="4" fill="#FFF0BD"/>
<circle cx="201" cy="224" r="4" fill="#FFF0BD"/>
<circle cx="201" cy="289" r="4" fill="#FFF0BD"/>
<circle cx="201" cy="354" r="4" fill="#FFF0BD"/>
<circle cx="201" cy="419" r="4" fill="#FFF0BD"/>
<circle cx="201" cy="484" r="4" fill="#FFF0BD"/>
<circle cx="201" cy="549" r="4" fill="#FFF0BD"/>
<circle cx="201" cy="614" r="4" fill="#FFF0BD"/>
<circle cx="201" cy="679" r="4" fill="#FFF0BD"/>
<circle cx="201" cy="744" r="4" fill="#FFF0BD"/>
<circle cx="201" cy="809" r="4" fill="#FFF0BD"/>
<circle cx="201" cy="874" r="4" fill="#FFF0BD"/>
<circle cx="201" cy="939" r="4" fill="#FFF0BD"/>
<circle cx="259" cy="29" r="4" fill="#FFF0BD"/>
<circle cx="259" cy="94" r="4" fill="#FFF0BD"/>
<circle cx="259" cy="159" r="4" fill="#FFF0BD"/>
<circle cx="259" cy="224" r="4" fill="#FFF0BD"/>
<circle cx="259" cy="289" r="4" fill="#FFF0BD"/>
<circle cx="259" cy="354" r="4" fill="#FFF0BD"/>
<circle cx="259" cy="419" r="4" fill="#FFF0BD"/>
<circle cx="259" cy="484" r="4" fill="#FFF0BD"/>
<circle cx="259" cy="549" r="4" fill="#FFF0BD"/>
<circle cx="259" cy="614" r="4" fill="#FFF0BD"/>
<circle cx="259" cy="679" r="4" fill="#FFF0BD"/>
<circle cx="259" cy="744" r="4" fill="#FFF0BD"/>
<circle cx="259" cy="809" r="4" fill="#FFF0BD"/>
<circle cx="259" cy="874" r="4" fill="#FFF0BD"/>
<circle cx="259" cy="939" r="4" fill="#FFF0BD"/>
<circle cx="317" cy="29" r="4" fill="#FFF0BD"/>
<circle cx="317" cy="94" r="4" fill="#FFF0BD"/>
<circle cx="317" cy="159" r="4" fill="#FFF0BD"/>
<circle cx="317" cy="224" r="4" fill="#FFF0BD"/>
<circle cx="317" cy="289" r="4" fill="#FFF0BD"/>
<circle cx="317" cy="354" r="4" fill="#FFF0BD"/>
<circle cx="317" cy="419" r="4" fill="#FFF0BD"/>
<circle cx="317" cy="484" r="4" fill="#FFF0BD"/>
<circle cx="317" cy="549" r="4" fill="#FFF0BD"/>
<circle cx="317" cy="614" r="4" fill="#FFF0BD"/>
<circle cx="317" cy="679" r="4" fill="#FFF0BD"/>
<circle cx="317" cy="744" r="4" fill="#FFF0BD"/>
<circle cx="317" cy="809" r="4" fill="#FFF0BD"/>
<circle cx="317" cy="874" r="4" fill="#FFF0BD"/>
<circle cx="317" cy="939" r="4" fill="#FFF0BD"/>
<circle cx="375" cy="29" r="4" fill="#FFF0BD"/>
<circle cx="375" cy="94" r="4" fill="#FFF0BD"/>
<circle cx="375" cy="159" r="4" fill="#FFF0BD"/>
<circle cx="375" cy="224" r="4" fill="#FFF0BD"/>
<circle cx="375" cy="289" r="4" fill="#FFF0BD"/>
<circle cx="375" cy="354" r="4" fill="#FFF0BD"/>
<circle cx="375" cy="419" r="4" fill="#FFF0BD"/>
<circle cx="375" cy="484" r="4" fill="#FFF0BD"/>
<circle cx="375" cy="549" r="4" fill="#FFF0BD"/>
<circle cx="375" cy="614" r="4" fill="#FFF0BD"/>
<circle cx="375" cy="679" r="4" fill="#FFF0BD"/>
<circle cx="375" cy="744" r="4" fill="#FFF0BD"/>
<circle cx="375" cy="809" r="4" fill="#FFF0BD"/>
<circle cx="375" cy="874" r="4" fill="#FFF0BD"/>
<circle cx="375" cy="939" r="4" fill="#FFF0BD"/>
<circle cx="433" cy="29" r="4" fill="#FFF0BD"/>
<circle cx="433" cy="94" r="4" fill="#FFF0BD"/>
<circle cx="433" cy="159" r="4" fill="#FFF0BD"/>
<circle cx="433" cy="224" r="4" fill="#FFF0BD"/>
<circle cx="433" cy="289" r="4" fill="#FFF0BD"/>
<circle cx="433" cy="354" r="4" fill="#FFF0BD"/>
<circle cx="433" cy="419" r="4" fill="#FFF0BD"/>
<circle cx="433" cy="484" r="4" fill="#FFF0BD"/>
<circle cx="433" cy="549" r="4" fill="#FFF0BD"/>
<circle cx="433" cy="614" r="4" fill="#FFF0BD"/>
<circle cx="433" cy="679" r="4" fill="#FFF0BD"/>
<circle cx="433" cy="744" r="4" fill="#FFF0BD"/>
<circle cx="433" cy="809" r="4" fill="#FFF0BD"/>
<circle cx="433" cy="874" r="4" fill="#FFF0BD"/>
<circle cx="433" cy="939" r="4" fill="#FFF0BD"/>
<circle cx="491" cy="29" r="4" fill="#FFF0BD"/>
<circle cx="491" cy="94" r="4" fill="#FFF0BD"/>
<circle cx="491" cy="159" r="4" fill="#FFF0BD"/>
<circle cx="491" cy="224" r="4" fill="#FFF0BD"/>
<circle cx="491" cy="289" r="4" fill="#FFF0BD"/>
<circle cx="491" cy="354" r="4" fill="#FFF0BD"/>
<circle cx="491" cy="419" r="4" fill="#FFF0BD"/>
<circle cx="491" cy="484" r="4" fill="#FFF0BD"/>
<circle cx="491" cy="549" r="4" fill="#FFF0BD"/>
<circle cx="491" cy="614" r="4" fill="#FFF0BD"/>
<circle cx="491" cy="679" r="4" fill="#FFF0BD"/>
<circle cx="491" cy="744" r="4" fill="#FFF0BD"/>
<circle cx="491" cy="809" r="4" fill="#FFF0BD"/>
<circle cx="491" cy="874" r="4" fill="#FFF0BD"/>
<circle cx="491" cy="939" r="4" fill="#FFF0BD"/>
<circle cx="549" cy="29" r="4" fill="#FFF0BD"/>
<circle cx="549" cy="94" r="4" fill="#FFF0BD"/>
<circle cx="549" cy="159" r="4" fill="#FFF0BD"/>
<circle cx="549" cy="224" r="4" fill="#FFF0BD"/>
<circle cx="549" cy="289" r="4" fill="#FFF0BD"/>
<circle cx="549" cy="354" r="4" fill="#FFF0BD"/>
<circle cx="549" cy="419" r="4" fill="#FFF0BD"/>
<circle cx="549" cy="484" r="4" fill="#FFF0BD"/>
<circle cx="549" cy="549" r="4" fill="#FFF0BD"/>
<circle cx="549" cy="614" r="4" fill="#FFF0BD"/>
<circle cx="549" cy="679" r="4" fill="#FFF0BD"/>
<circle cx="549" cy="744" r="4" fill="#FFF0BD"/>
<circle cx="549" cy="809" r="4" fill="#FFF0BD"/>
<circle cx="549" cy="874" r="4" fill="#FFF0BD"/>
<circle cx="549" cy="939" r="4" fill="#FFF0BD"/>
<circle cx="607" cy="29" r="4" fill="#FFF0BD"/>
<circle cx="607" cy="94" r="4" fill="#FFF0BD"/>
<circle cx="607" cy="159" r="4" fill="#FFF0BD"/>
<circle cx="607" cy="224" r="4" fill="#FFF0BD"/>
<circle cx="607" cy="289" r="4" fill="#FFF0BD"/>
<circle cx="607" cy="354" r="4" fill="#FFF0BD"/>
<circle cx="607" cy="419" r="4" fill="#FFF0BD"/>
<circle cx="607" cy="484" r="4" fill="#FFF0BD"/>
<circle cx="607" cy="549" r="4" fill="#FFF0BD"/>
<circle cx="607" cy="614" r="4" fill="#FFF0BD"/>
<circle cx="607" cy="679" r="4" fill="#FFF0BD"/>
<circle cx="607" cy="744" r="4" fill="#FFF0BD"/>
<circle cx="607" cy="809" r="4" fill="#FFF0BD"/>
<circle cx="607" cy="874" r="4" fill="#FFF0BD"/>
<circle cx="607" cy="939" r="4" fill="#FFF0BD"/>
<circle cx="665" cy="29" r="4" fill="#FFF0BD"/>
<circle cx="665" cy="94" r="4" fill="#FFF0BD"/>
<circle cx="665" cy="159" r="4" fill="#FFF0BD"/>
<circle cx="665" cy="224" r="4" fill="#FFF0BD"/>
<circle cx="665" cy="289" r="4" fill="#FFF0BD"/>
<circle cx="665" cy="354" r="4" fill="#FFF0BD"/>
<circle cx="665" cy="419" r="4" fill="#FFF0BD"/>
<circle cx="665" cy="484" r="4" fill="#FFF0BD"/>
<circle cx="665" cy="549" r="4" fill="#FFF0BD"/>
<circle cx="665" cy="614" r="4" fill="#FFF0BD"/>
<circle cx="665" cy="679" r="4" fill="#FFF0BD"/>
<circle cx="665" cy="744" r="4" fill="#FFF0BD"/>
<circle cx="665" cy="809" r="4" fill="#FFF0BD"/>
<circle cx="665" cy="874" r="4" fill="#FFF0BD"/>
<circle cx="665" cy="939" r="4" fill="#FFF0BD"/>
<circle cx="723" cy="29" r="4" fill="#FFF0BD"/>
<circle cx="723" cy="94" r="4" fill="#FFF0BD"/>
<circle cx="723" cy="159" r="4" fill="#FFF0BD"/>
<circle cx="723" cy="224" r="4" fill="#FFF0BD"/>
<circle cx="723" cy="289" r="4" fill="#FFF0BD"/>
<circle cx="723" cy="354" r="4" fill="#FFF0BD"/>
<circle cx="723" cy="419" r="4" fill="#FFF0BD"/>
<circle cx="723" cy="484" r="4" fill="#FFF0BD"/>
<circle cx="723" cy="549" r="4" fill="#FFF0BD"/>
<circle cx="723" cy="614" r="4" fill="#FFF0BD"/>
<circle cx="723" cy="679" r="4" fill="#FFF0BD"/>
<circle cx="723" cy="744" r="4" fill="#FFF0BD"/>
<circle cx="723" cy="809" r="4" fill="#FFF0BD"/>
<circle cx="723" cy="874" r="4" fill="#FFF0BD"/>
<circle cx="723" cy="939" r="4" fill="#FFF0BD"/>
<circle cx="781" cy="29" r="4" fill="#FFF0BD"/>
<circle cx="781" cy="94" r="4" fill="#FFF0BD"/>
<circle cx="781" cy="159" r="4" fill="#FFF0BD"/>
<circle cx="781" cy="224" r="4" fill="#FFF0BD"/>
<circle cx="781" cy="289" r="4" fill="#FFF0BD"/>
<circle cx="781" cy="354" r="4" fill="#FFF0BD"/>
<circle cx="781" cy="419" r="4" fill="#FFF0BD"/>
<circle cx="781" cy="484" r="4" fill="#FFF0BD"/>
<circle cx="781" cy="549" r="4" fill="#FFF0BD"/>
<circle cx="781" cy="614" r="4" fill="#FFF0BD"/>
<circle cx="781" cy="679" r="4" fill="#FFF0BD"/>
<circle cx="781" cy="744" r="4" fill="#FFF0BD"/>
<circle cx="781" cy="809" r="4" fill="#FFF0BD"/>
<circle cx="781" cy="874" r="4" fill="#FFF0BD"/>
<circle cx="781" cy="939" r="4" fill="#FFF0BD"/>
<circle cx="839" cy="29" r="4" fill="#FFF0BD"/>
<circle cx="839" cy="94" r="4" fill="#FFF0BD"/>
<circle cx="839" cy="159" r="4" fill="#FFF0BD"/>
<circle cx="839" cy="224" r="4" fill="#FFF0BD"/>
<circle cx="839" cy="289" r="4" fill="#FFF0BD"/>
<circle cx="839" cy="354" r="4" fill="#FFF0BD"/>
<circle cx="839" cy="419" r="4" fill="#FFF0BD"/>
<circle cx="839" cy="484" r="4" fill="#FFF0BD"/>
<circle cx="839" cy="549" r="4" fill="#FFF0BD"/>
<circle cx="839" cy="614" r="4" fill="#FFF0BD"/>
<circle cx="839" cy="679" r="4" fill="#FFF0BD"/>
<circle cx="839" cy="744" r="4" fill="#FFF0BD"/>
<circle cx="839" cy="809" r="4" fill="#FFF0BD"/>
<circle cx="839" cy="874" r="4" fill="#FFF0BD"/>
<circle cx="839" cy="939" r="4" fill="#FFF0BD"/>
<circle cx="897" cy="29" r="4" fill="#FFF0BD"/>
<circle cx="897" cy="94" r="4" fill="#FFF0BD"/>
<circle cx="897" cy="159" r="4" fill="#FFF0BD"/>
<circle cx="897" cy="224" r="4" fill="#FFF0BD"/>
<circle cx="897" cy="289" r="4" fill="#FFF0BD"/>
<circle cx="897" cy="354" r="4" fill="#FFF0BD"/>
<circle cx="897" cy="419" r="4" fill="#FFF0BD"/>
<circle cx="897" cy="484" r="4" fill="#FFF0BD"/>
<circle cx="897" cy="549" r="4" fill="#FFF0BD"/>
<circle cx="897" cy="614" r="4" fill="#FFF0BD"/>
<circle cx="897" cy="679" r="4" fill="#FFF0BD"/>
<circle cx="897" cy="744" r="4" fill="#FFF0BD"/>
<circle cx="897" cy="809" r="4" fill="#FFF0BD"/>
<circle cx="897" cy="874" r="4" fill="#FFF0BD"/>
<circle cx="897" cy="939" r="4" fill="#FFF0BD"/>
<circle cx="955" cy="29" r="4" fill="#FFF0BD"/>
<circle cx="955" cy="94" r="4" fill="#FFF0BD"/>
<circle cx="955" cy="159" r="4" fill="#FFF0BD"/>
<circle cx="955" cy="224" r="4" fill="#FFF0BD"/>
<circle cx="955" cy="289" r="4" fill="#FFF0BD"/>
<circle cx="955" cy="354" r="4" fill="#FFF0BD"/>
<circle cx="955" cy="419" r="4" fill="#FFF0BD"/>
<circle cx="955" cy="484" r="4" fill="#FFF0BD"/>
<circle cx="955" cy="549" r="4" fill="#FFF0BD"/>
<circle cx="955" cy="614" r="4" fill="#FFF0BD"/>
<circle cx="955" cy="679" r="4" fill="#FFF0BD"/>
<circle cx="955" cy="744" r="4" fill="#FFF0BD"/>
<circle cx="955" cy="809" r="4" fill="#FFF0BD"/>
<circle cx="955" cy="874" r="4" fill="#FFF0BD"/>
<circle cx="955" cy="939" r="4" fill="#FFF0BD"/>
<circle cx="1013" cy="29" r="4" fill="#FFF0BD"/>
<circle cx="1013" cy="94" r="4" fill="#FFF0BD"/>
<circle cx="1013" cy="159" r="4" fill="#FFF0BD"/>
<circle cx="1013" cy="224" r="4" fill="#FFF0BD"/>
<circle cx="1013" cy="289" r="4" fill="#FFF0BD"/>
<circle cx="1013" cy="354" r="4" fill="#FFF0BD"/>
<circle cx="1013" cy="419" r="4" fill="#FFF0BD"/>
<circle cx="1013" cy="484" r="4" fill="#FFF0BD"/>
<circle cx="1013" cy="549" r="4" fill="#FFF0BD"/>
<circle cx="1013" cy="614" r="4" fill="#FFF0BD"/>
<circle cx="1013" cy="679" r="4" fill="#FFF0BD"/>
<circle cx="1013" cy="744" r="4" fill="#FFF0BD"/>
<circle cx="1013" cy="809" r="4" fill="#FFF0BD"/>
<circle cx="1013" cy="874" r="4" fill="#FFF0BD"/>
<circle cx="1013" cy="939" r="4" fill="#FFF0BD"/>
<circle cx="1071" cy="29" r="4" fill="#FFF0BD"/>
<circle cx="1071" cy="94" r="4" fill="#FFF0BD"/>
<circle cx="1071" cy="159" r="4" fill="#FFF0BD"/>
<circle cx="1071" cy="224" r="4" fill="#FFF0BD"/>
<circle cx="1071" cy="289" r="4" fill="#FFF0BD"/>
<circle cx="1071" cy="354" r="4" fill="#FFF0BD"/>
<circle cx="1071" cy="419" r="4" fill="#FFF0BD"/>
<circle cx="1071" cy="484" r="4" fill="#FFF0BD"/>
<circle cx="1071" cy="549" r="4" fill="#FFF0BD"/>
<circle cx="1071" cy="614" r="4" fill="#FFF0BD"/>
<circle cx="1071" cy="679" r="4" fill="#FFF0BD"/>
<circle cx="1071" cy="744" r="4" fill="#FFF0BD"/>
<circle cx="1071" cy="809" r="4" fill="#FFF0BD"/>
<circle cx="1071" cy="874" r="4" fill="#FFF0BD"/>
<circle cx="1071" cy="939" r="4" fill="#FFF0BD"/>
<circle cx="1129" cy="29" r="4" fill="#FFF0BD"/>
<circle cx="1129" cy="94" r="4" fill="#FFF0BD"/>
<circle cx="1129" cy="159" r="4" fill="#FFF0BD"/>
<circle cx="1129" cy="224" r="4" fill="#FFF0BD"/>
<circle cx="1129" cy="289" r="4" fill="#FFF0BD"/>
<circle cx="1129" cy="354" r="4" fill="#FFF0BD"/>
<circle cx="1129" cy="419" r="4" fill="#FFF0BD"/>
<circle cx="1129" cy="484" r="4" fill="#FFF0BD"/>
<circle cx="1129" cy="549" r="4" fill="#FFF0BD"/>
<circle cx="1129" cy="614" r="4" fill="#FFF0BD"/>
<circle cx="1129" cy="679" r="4" fill="#FFF0BD"/>
<circle cx="1129" cy="744" r="4" fill="#FFF0BD"/>
<circle cx="1129" cy="809" r="4" fill="#FFF0BD"/>
<circle cx="1129" cy="874" r="4" fill="#FFF0BD"/>
<circle cx="1129" cy="939" r="4" fill="#FFF0BD"/>
<circle cx="1187" cy="29" r="4" fill="#FFF0BD"/>
<circle cx="1187" cy="94" r="4" fill="#FFF0BD"/>
<circle cx="1187" cy="159" r="4" fill="#FFF0BD"/>
<circle cx="1187" cy="224" r="4" fill="#FFF0BD"/>
<circle cx="1187" cy="289" r="4" fill="#FFF0BD"/>
<circle cx="1187" cy="354" r="4" fill="#FFF0BD"/>
<circle cx="1187" cy="419" r="4" fill="#FFF0BD"/>
<circle cx="1187" cy="484" r="4" fill="#FFF0BD"/>
<circle cx="1187" cy="549" r="4" fill="#FFF0BD"/>
<circle cx="1187" cy="614" r="4" fill="#FFF0BD"/>
<circle cx="1187" cy="679" r="4" fill="#FFF0BD"/>
<circle cx="1187" cy="744" r="4" fill="#FFF0BD"/>
<circle cx="1187" cy="809" r="4" fill="#FFF0BD"/>
<circle cx="1187" cy="874" r="4" fill="#FFF0BD"/>
<circle cx="1187" cy="939" r="4" fill="#FFF0BD"/>
<circle cx="1245" cy="29" r="4" fill="#FFF0BD"/>
<circle cx="1245" cy="94" r="4" fill="#FFF0BD"/>
<circle cx="1245" cy="159" r="4" fill="#FFF0BD"/>
<circle cx="1245" cy="224" r="4" fill="#FFF0BD"/>
<circle cx="1245" cy="289" r="4" fill="#FFF0BD"/>
<circle cx="1245" cy="354" r="4" fill="#FFF0BD"/>
<circle cx="1245" cy="419" r="4" fill="#FFF0BD"/>
<circle cx="1245" cy="484" r="4" fill="#FFF0BD"/>
<circle cx="1245" cy="549" r="4" fill="#FFF0BD"/>
<circle cx="1245" cy="614" r="4" fill="#FFF0BD"/>
<circle cx="1245" cy="679" r="4" fill="#FFF0BD"/>
<circle cx="1245" cy="744" r="4" fill="#FFF0BD"/>
<circle cx="1245" cy="809" r="4" fill="#FFF0BD"/>
<circle cx="1245" cy="874" r="4" fill="#FFF0BD"/>
<circle cx="1245" cy="939" r="4" fill="#FFF0BD"/>
<circle cx="1303" cy="29" r="4" fill="#FFF0BD"/>
<circle cx="1303" cy="94" r="4" fill="#FFF0BD"/>
<circle cx="1303" cy="159" r="4" fill="#FFF0BD"/>
<circle cx="1303" cy="224" r="4" fill="#FFF0BD"/>
<circle cx="1303" cy="289" r="4" fill="#FFF0BD"/>
<circle cx="1303" cy="354" r="4" fill="#FFF0BD"/>
<circle cx="1303" cy="419" r="4" fill="#FFF0BD"/>
<circle cx="1303" cy="484" r="4" fill="#FFF0BD"/>
<circle cx="1303" cy="549" r="4" fill="#FFF0BD"/>
<circle cx="1303" cy="614" r="4" fill="#FFF0BD"/>
<circle cx="1303" cy="679" r="4" fill="#FFF0BD"/>
<circle cx="1303" cy="744" r="4" fill="#FFF0BD"/>
<circle cx="1303" cy="809" r="4" fill="#FFF0BD"/>
<circle cx="1303" cy="874" r="4" fill="#FFF0BD"/>
<circle cx="1303" cy="939" r="4" fill="#FFF0BD"/>
<circle cx="1361" cy="29" r="4" fill="#FFF0BD"/>
<circle cx="1361" cy="94" r="4" fill="#FFF0BD"/>
<circle cx="1361" cy="159" r="4" fill="#FFF0BD"/>
<circle cx="1361" cy="224" r="4" fill="#FFF0BD"/>
<circle cx="1361" cy="289" r="4" fill="#FFF0BD"/>
<circle cx="1361" cy="354" r="4" fill="#FFF0BD"/>
<circle cx="1361" cy="419" r="4" fill="#FFF0BD"/>
<circle cx="1361" cy="484" r="4" fill="#FFF0BD"/>
<circle cx="1361" cy="549" r="4" fill="#FFF0BD"/>
<circle cx="1361" cy="614" r="4" fill="#FFF0BD"/>
<circle cx="1361" cy="679" r="4" fill="#FFF0BD"/>
<circle cx="1361" cy="744" r="4" fill="#FFF0BD"/>
<circle cx="1361" cy="809" r="4" fill="#FFF0BD"/>
<circle cx="1361" cy="874" r="4" fill="#FFF0BD"/>
<circle cx="1361" cy="939" r="4" fill="#FFF0BD"/>
<circle cx="1419" cy="29" r="4" fill="#FFF0BD"/>
<circle cx="1419" cy="94" r="4" fill="#FFF0BD"/>
<circle cx="1419" cy="159" r="4" fill="#FFF0BD"/>
<circle cx="1419" cy="224" r="4" fill="#FFF0BD"/>
<circle cx="1419" cy="289" r="4" fill="#FFF0BD"/>
<circle cx="1419" cy="354" r="4" fill="#FFF0BD"/>
<circle cx="1419" cy="419" r="4" fill="#FFF0BD"/>
<circle cx="1419" cy="484" r="4" fill="#FFF0BD"/>
<circle cx="1419" cy="549" r="4" fill="#FFF0BD"/>
<circle cx="1419" cy="614" r="4" fill="#FFF0BD"/>
<circle cx="1419" cy="679" r="4" fill="#FFF0BD"/>
<circle cx="1419" cy="744" r="4" fill="#FFF0BD"/>
<circle cx="1419" cy="809" r="4" fill="#FFF0BD"/>
<circle cx="1419" cy="874" r="4" fill="#FFF0BD"/>
<circle cx="1419" cy="939" r="4" fill="#FFF0BD"/>
<path d="M214.677 596.313C214.677 596.313 216.736 600.969 218.456 603.447C220.177 605.924 223.41 608.888 223.41 608.888C223.41 608.888 220.177 611.853 218.456 614.33C216.736 616.808 214.677 621.463 214.677 621.463C214.677 621.463 212.618 616.808 210.898 614.33C209.177 611.853 205.944 608.888 205.944 608.888C205.944 608.888 209.177 605.924 210.898 603.447C212.618 600.969 214.677 596.313 214.677 596.313Z" fill="#FEA564"/>
<path d="M183.938 682.941C183.938 682.941 185.338 686.045 186.508 687.697C187.678 689.349 189.876 691.325 189.876 691.325C189.876 691.325 187.678 693.301 186.508 694.953C185.338 696.604 183.938 699.708 183.938 699.708C183.938 699.708 182.538 696.604 181.368 694.953C180.199 693.301 178 691.325 178 691.325C178 691.325 180.199 689.349 181.368 687.697C182.538 686.045 183.938 682.941 183.938 682.941Z" fill="#FEA564"/>
<path d="M396.443 610.142C397.793 606.813 402.507 606.813 403.857 610.142L406.77 617.326C407.176 618.329 407.971 619.124 408.974 619.53L416.158 622.443C419.487 623.793 419.487 628.507 416.158 629.857L408.974 632.77C407.971 633.176 407.176 633.971 406.77 634.974L403.857 642.158C402.507 645.487 397.793 645.487 396.443 642.158L393.53 634.974C393.124 633.971 392.329 633.176 391.326 632.77L384.142 629.857C380.813 628.507 380.813 623.793 384.142 622.443L391.326 619.53C392.329 619.124 393.124 618.329 393.53 617.326L396.443 610.142Z" fill="#5C8EF3"/>
<path d="M232.009 558.151C232.649 556.398 235.128 556.398 235.767 558.151L237.304 562.363C237.506 562.918 237.943 563.354 238.497 563.557L242.71 565.093C244.463 565.733 244.463 568.212 242.71 568.851L238.497 570.388C237.943 570.59 237.506 571.027 237.304 571.581L235.767 575.794C235.128 577.547 232.649 577.547 232.009 575.794L230.473 571.581C230.27 571.027 229.834 570.59 229.279 570.388L225.067 568.851C223.314 568.212 223.314 565.733 225.067 565.093L229.279 563.557C229.834 563.354 230.27 562.918 230.473 562.363L232.009 558.151Z" fill="#5C8EF3"/>
<path d="M1280.13 623.151C1280.77 621.398 1283.25 621.398 1283.89 623.151L1285.43 627.363C1285.63 627.918 1286.07 628.354 1286.62 628.557L1290.83 630.093C1292.59 630.733 1292.59 633.212 1290.83 633.851L1286.62 635.388C1286.07 635.59 1285.63 636.027 1285.43 636.581L1283.89 640.794C1283.25 642.547 1280.77 642.547 1280.13 640.794L1278.6 636.581C1278.39 636.027 1277.96 635.59 1277.4 635.388L1273.19 633.851C1271.44 633.212 1271.44 630.733 1273.19 630.093L1277.4 628.557C1277.96 628.354 1278.39 627.918 1278.6 627.363L1280.13 623.151Z" fill="#5C8EF3"/>
<path d="M505.195 797.993C505.835 796.241 508.314 796.241 508.953 797.993L510.49 802.206C510.692 802.76 511.129 803.197 511.683 803.399L515.896 804.936C517.648 805.576 517.648 808.054 515.896 808.694L511.683 810.231C511.129 810.433 510.692 810.87 510.49 811.424L508.953 815.637C508.314 817.389 505.835 817.389 505.195 815.637L503.658 811.424C503.456 810.87 503.019 810.433 502.465 810.231L498.252 808.694C496.5 808.054 496.5 805.576 498.252 804.936L502.465 803.399C503.019 803.197 503.456 802.76 503.658 802.206L505.195 797.993Z" fill="#FF7BE2"/>
<path d="M1335.05 153.151C1335.69 151.398 1338.16 151.398 1338.8 153.151L1340.34 157.363C1340.54 157.918 1340.98 158.354 1341.53 158.557L1345.75 160.093C1347.5 160.733 1347.5 163.212 1345.75 163.851L1341.53 165.388C1340.98 165.59 1340.54 166.027 1340.34 166.581L1338.8 170.794C1338.16 172.547 1335.69 172.547 1335.05 170.794L1333.51 166.581C1333.31 166.027 1332.87 165.59 1332.32 165.388L1328.1 163.851C1326.35 163.212 1326.35 160.733 1328.1 160.093L1332.32 158.557C1332.87 158.354 1333.31 157.918 1333.51 157.363L1335.05 153.151Z" fill="#FEA564"/>
<path d="M320.762 356.471C321.401 354.718 323.88 354.718 324.519 356.471L325.496 359.148C325.698 359.702 326.135 360.139 326.689 360.341L329.366 361.318C331.119 361.957 331.119 364.436 329.366 365.076L326.689 366.052C326.135 366.254 325.698 366.691 325.496 367.246L324.519 369.922C323.88 371.675 321.401 371.675 320.762 369.922L319.785 367.246C319.583 366.691 319.146 366.254 318.592 366.052L315.915 365.076C314.162 364.436 314.162 361.957 315.915 361.318L318.592 360.341C319.146 360.139 319.583 359.702 319.785 359.148L320.762 356.471Z" fill="#5C8EF3"/>
<path d="M901.308 684.819C901.947 683.066 904.426 683.066 905.066 684.819L906.042 687.495C906.244 688.05 906.681 688.487 907.236 688.689L909.913 689.665C911.665 690.305 911.665 692.784 909.913 693.423L907.236 694.4C906.681 694.602 906.244 695.039 906.042 695.593L905.066 698.27C904.426 700.023 901.947 700.023 901.308 698.27L900.331 695.593C900.129 695.039 899.692 694.602 899.138 694.4L896.461 693.423C894.708 692.784 894.708 690.305 896.461 689.665L899.138 688.689C899.692 688.487 900.129 688.05 900.331 687.495L901.308 684.819Z" fill="#FFDA58"/>
<path d="M1116.38 324.309C1117.02 322.556 1119.5 322.556 1120.14 324.309L1123.36 333.128C1123.56 333.683 1123.99 334.12 1124.55 334.322L1133.37 337.539C1135.12 338.178 1135.12 340.657 1133.37 341.297L1124.55 344.514C1123.99 344.716 1123.56 345.153 1123.36 345.708L1120.14 354.527C1119.5 356.28 1117.02 356.28 1116.38 354.527L1113.16 345.708C1112.96 345.153 1112.52 344.716 1111.97 344.514L1103.15 341.297C1101.4 340.657 1101.4 338.178 1103.15 337.539L1111.97 334.322C1112.52 334.12 1112.96 333.683 1113.16 333.128L1116.38 324.309Z" fill="#75CA6C"/>
<path d="M1294.79 294.967C1294.15 293.214 1291.67 293.214 1291.03 294.967L1290.06 297.644C1289.86 298.198 1289.42 298.635 1288.86 298.837L1286.19 299.814C1284.43 300.453 1284.43 302.932 1286.19 303.572L1288.86 304.548C1289.42 304.75 1289.86 305.187 1290.06 305.742L1291.03 308.419C1291.67 310.171 1294.15 310.171 1294.79 308.419L1295.77 305.742C1295.97 305.187 1296.41 304.75 1296.96 304.548L1299.64 303.572C1301.39 302.932 1301.39 300.453 1299.64 299.814L1296.96 298.837C1296.41 298.635 1295.97 298.198 1295.77 297.644L1294.79 294.967Z" fill="#5C8EF3"/>
<path d="M265.827 335.407C266.166 334.581 267.337 334.581 267.676 335.407L269.239 339.207C269.34 339.454 269.536 339.65 269.783 339.752L273.584 341.314C274.41 341.654 274.41 342.824 273.584 343.164L269.783 344.726C269.536 344.828 269.34 345.024 269.239 345.271L267.676 349.071C267.337 349.898 266.166 349.898 265.827 349.071L264.264 345.271C264.163 345.024 263.967 344.828 263.72 344.726L259.919 343.164C259.093 342.824 259.093 341.654 259.919 341.314L263.72 339.752C263.967 339.65 264.163 339.454 264.264 339.207L265.827 335.407Z" fill="#5C8EF3"/>
<path d="M1318.99 257.137C1318.65 256.31 1317.48 256.31 1317.14 257.137L1315.58 260.937C1315.47 261.184 1315.28 261.38 1315.03 261.482L1311.23 263.044C1310.4 263.383 1310.4 264.554 1311.23 264.894L1315.03 266.456C1315.28 266.557 1315.47 266.753 1315.58 267L1317.14 270.801C1317.48 271.627 1318.65 271.627 1318.99 270.801L1320.55 267C1320.65 266.753 1320.85 266.557 1321.09 266.456L1324.89 264.894C1325.72 264.554 1325.72 263.383 1324.89 263.044L1321.09 261.482C1320.85 261.38 1320.65 261.184 1320.55 260.937L1318.99 257.137Z" fill="#5C8EF3"/>
<path d="M109.157 967.947C109.497 967.121 110.667 967.121 111.007 967.947L112.569 971.747C112.671 971.994 112.867 972.191 113.114 972.292L116.914 973.854C117.74 974.194 117.74 975.364 116.914 975.704L113.114 977.266C112.867 977.368 112.671 977.564 112.569 977.811L111.007 981.611C110.667 982.438 109.497 982.438 109.157 981.611L107.595 977.811C107.493 977.564 107.297 977.368 107.05 977.266L103.25 975.704C102.423 975.364 102.423 974.194 103.25 973.854L107.05 972.292C107.297 972.191 107.493 971.994 107.595 971.747L109.157 967.947Z" fill="#5C8EF3"/>
<path d="M448.391 219.982C448.391 219.982 451.19 226.319 453.53 229.691C455.87 233.064 460.267 237.098 460.267 237.098C460.267 237.098 455.87 241.133 453.53 244.505C451.19 247.878 448.391 254.214 448.391 254.214C448.391 254.214 445.591 247.878 443.251 244.505C440.911 241.133 436.514 237.098 436.514 237.098C436.514 237.098 440.911 233.064 443.251 229.691C445.591 226.319 448.391 219.982 448.391 219.982Z" fill="#FFDA58"/>
<path d="M1177.64 247.201C1177.64 247.201 1180.44 253.538 1182.78 256.91C1185.12 260.282 1189.52 264.317 1189.52 264.317C1189.52 264.317 1185.12 268.352 1182.78 271.724C1180.44 275.096 1177.64 281.433 1177.64 281.433C1177.64 281.433 1174.84 275.096 1172.5 271.724C1170.16 268.352 1165.77 264.317 1165.77 264.317C1165.77 264.317 1170.16 260.282 1172.5 256.91C1174.84 253.538 1177.64 247.201 1177.64 247.201Z" fill="#FFDA58"/>
<path d="M1354.67 901.636C1354.67 901.636 1357.47 907.973 1359.81 911.345C1362.15 914.717 1366.54 918.752 1366.54 918.752C1366.54 918.752 1362.15 922.786 1359.81 926.159C1357.47 929.531 1354.67 935.868 1354.67 935.868C1354.67 935.868 1351.87 929.531 1349.53 926.159C1347.19 922.786 1342.79 918.752 1342.79 918.752C1342.79 918.752 1347.19 914.717 1349.53 911.345C1351.87 907.973 1354.67 901.636 1354.67 901.636Z" fill="#FFDA58"/>
<path d="M867.558 820.788C867.558 820.788 869.369 824.409 870.884 826.336C872.398 828.263 875.243 830.569 875.243 830.569C875.243 830.569 872.398 832.874 870.884 834.801C869.369 836.728 867.558 840.349 867.558 840.349C867.558 840.349 865.746 836.728 864.232 834.801C862.718 832.874 859.873 830.569 859.873 830.569C859.873 830.569 862.718 828.263 864.232 826.336C865.746 824.409 867.558 820.788 867.558 820.788Z" fill="#75CA6C"/>
<path d="M555.064 92.8938C556.414 89.5646 561.128 89.5646 562.478 92.8938L564.585 98.0899C564.991 99.0923 565.786 99.8873 566.789 100.294L571.985 102.401C575.314 103.751 575.314 108.464 571.985 109.814L566.789 111.921C565.786 112.328 564.991 113.123 564.585 114.125L562.478 119.321C561.128 122.65 556.414 122.65 555.064 119.321L552.957 114.125C552.551 113.123 551.756 112.328 550.754 111.921L545.557 109.814C542.228 108.464 542.228 103.751 545.557 102.401L550.754 100.294C551.756 99.8873 552.551 99.0923 552.957 98.0899L555.064 92.8938Z" fill="#75CA6C"/>
<path d="M312.465 923.142C313.815 919.813 318.529 919.813 319.879 923.142L321.986 928.338C322.392 929.34 323.187 930.135 324.19 930.542L329.386 932.649C332.715 933.999 332.715 938.712 329.386 940.062L324.19 942.169C323.187 942.576 322.392 943.371 321.986 944.373L319.879 949.569C318.529 952.898 313.815 952.898 312.465 949.569L310.358 944.373C309.952 943.371 309.157 942.576 308.154 942.169L302.958 940.062C299.629 938.712 299.629 933.999 302.958 932.649L308.154 930.542C309.157 930.135 309.952 929.34 310.358 928.338L312.465 923.142Z" fill="#75CA6C"/>
<path d="M705.024 122.555C705.699 120.891 708.056 120.891 708.731 122.555L710.59 127.142C710.794 127.643 711.191 128.04 711.692 128.244L716.279 130.103C717.943 130.778 717.943 133.135 716.279 133.81L711.692 135.67C711.191 135.873 710.794 136.27 710.59 136.772L708.731 141.358C708.056 143.023 705.699 143.023 705.024 141.358L703.164 136.772C702.961 136.27 702.563 135.873 702.062 135.67L697.476 133.81C695.811 133.135 695.811 130.778 697.476 130.103L702.062 128.244C702.563 128.04 702.961 127.643 703.164 127.142L705.024 122.555Z" fill="#FF7BE2"/>
<path d="M812.853 69.1419C814.203 65.8126 818.916 65.8126 820.266 69.1419L826.001 83.2851C826.408 84.2875 827.203 85.0825 828.205 85.4889L842.348 91.2237C845.677 92.5737 845.677 97.2875 842.348 98.6374L828.205 104.372C827.203 104.779 826.408 105.574 826.001 106.576L820.266 120.719C818.916 124.049 814.203 124.049 812.853 120.719L807.118 106.576C806.711 105.574 805.916 104.779 804.914 104.372L790.771 98.6374C787.442 97.2875 787.442 92.5737 790.771 91.2237L804.914 85.4889C805.916 85.0825 806.711 84.2875 807.118 83.2851L812.853 69.1419Z" fill="#75CA6C"/>
<path d="M-10.7763 475.142C-9.42634 471.813 -4.71251 471.813 -3.36257 475.142L2.37223 489.285C2.77866 490.287 3.57369 491.082 4.57603 491.489L18.7193 497.224C22.0485 498.574 22.0485 503.287 18.7192 504.637L4.57603 510.372C3.57369 510.779 2.77866 511.574 2.37223 512.576L-3.36257 526.719C-4.71252 530.049 -9.42634 530.049 -10.7763 526.719L-16.5111 512.576C-16.9175 511.574 -17.7125 510.779 -18.7149 510.372L-32.8581 504.637C-36.1874 503.287 -36.1874 498.574 -32.8581 497.224L-18.7149 491.489C-17.7125 491.082 -16.9175 490.287 -16.5111 489.285L-10.7763 475.142Z" fill="#FEA564"/>
<path d="M1218.22 808.781C1219.57 805.451 1224.29 805.451 1225.64 808.781L1231.37 822.924C1231.78 823.926 1232.57 824.721 1233.58 825.128L1247.72 830.862C1251.05 832.212 1251.05 836.926 1247.72 838.276L1233.58 844.011C1232.57 844.417 1231.78 845.212 1231.37 846.215L1225.64 860.358C1224.29 863.687 1219.57 863.687 1218.22 860.358L1212.49 846.215C1212.08 845.212 1211.29 844.417 1210.29 844.011L1196.14 838.276C1192.81 836.926 1192.81 832.212 1196.14 830.862L1210.29 825.128C1211.29 824.721 1212.08 823.926 1212.49 822.924L1218.22 808.781Z" fill="#5C8EF3"/>
<path d="M226.882 147.289C229.73 140.265 239.677 140.265 242.525 147.289L254.625 177.132C255.483 179.247 257.16 180.924 259.275 181.782L289.118 193.882C296.142 196.73 296.142 206.677 289.118 209.525L259.275 221.625C257.16 222.483 255.483 224.16 254.625 226.275L242.525 256.118C239.677 263.142 229.73 263.142 226.882 256.118L214.782 226.275C213.924 224.16 212.247 222.483 210.132 221.625L180.289 209.525C173.265 206.677 173.265 196.73 180.289 193.882L210.132 181.782C212.247 180.924 213.924 179.247 214.782 177.132L226.882 147.289Z" fill="#5C8EF3"/>
<path d="M1235 668.011L1225.43 668.865L1224.73 677.94L1215.87 678.882L1214.5 688H1101L1099 680C1099 680 1098.04 675.998 1098 676.011H1091L1088 666.011H1081L1078 656.011L1086 608.669V549.328C1088.52 548.887 1091.01 548.386 1094.44 547.785C1094.84 545.261 1095.28 542.436 1095.8 539.011H1192.7L1217 527L1225 539.011V547H1227L1235 559.011V668.011ZM1135.89 578.876V637.654H1184.56V578.876H1135.89Z" fill="#F86C14"/>
<path d="M1227 656L1217.43 656.855L1216.73 665.93L1207.86 666.871L1206.46 675.886L1098 676C1097.46 673.436 1097.04 670.277 1096.34 666.931C1093.72 666.651 1091.16 666.37 1088 666.01C1087.56 663.285 1087.12 660.461 1086.58 657.055L1078 656V537.317C1080.52 536.876 1083.01 536.375 1086.43 535.775C1086.84 533.25 1087.28 530.426 1087.8 527H1217V545.37L1227 547V656ZM1127.89 566.866V625.643H1176.56V566.866H1127.89Z" fill="#FFC700"/>
<path fill-rule="evenodd" clip-rule="evenodd" d="M571.717 197.674H589.064V296.211H571.717V197.674ZM589.067 212.164H606.414L606.414 322.297H620.867L620.867 417.936H606.411L606.411 406.34H589.067V212.164Z" fill="#FFC700"/>
<path fill-rule="evenodd" clip-rule="evenodd" d="M557.26 244.043H522.566V298.636H539.916V374.458H571.719V295.602H557.26V244.043Z" fill="#FFC700"/>
<path fill-rule="evenodd" clip-rule="evenodd" d="M638.214 162.896H620.867V325.192H638.214V162.896ZM652.67 183.182H638.215V310.7H652.67V183.182Z" fill="#FFC700"/>
<path fill-rule="evenodd" clip-rule="evenodd" d="M684.476 197.669H667.129V339.679H684.476V197.669ZM701.826 212.159H684.479V357.066H701.826V212.159Z" fill="#FFC700"/>
<path fill-rule="evenodd" clip-rule="evenodd" d="M779.877 197.675H762.53V388.953H779.877V197.675ZM797.227 212.165H779.88V388.952H797.227V212.165Z" fill="#FFC700"/>
<path fill-rule="evenodd" clip-rule="evenodd" d="M826.14 212.16H808.793V388.948H826.14V212.16ZM843.49 226.65H826.143L826.143 420.826H843.49L843.49 226.65Z" fill="#FFC700"/>
<path fill-rule="evenodd" clip-rule="evenodd" d="M732.174 160H716.273V371.723H732.174V160ZM748.076 181.605H732.175V397.649H748.076V181.605Z" fill="#FFC700"/>
<path fill-rule="evenodd" clip-rule="evenodd" d="M872.403 244.042H857.947V391.848H872.403V388.949H889.749V261.43H872.403V244.042Z" fill="#FFC700"/>
<path fill-rule="evenodd" clip-rule="evenodd" d="M745.191 380.257H762.538L762.538 470.1H745.196V472.994H730.741L730.741 400.54H745.191V380.257Z" fill="#FFC700"/>
<path fill-rule="evenodd" clip-rule="evenodd" d="M652.669 325.191H638.213L638.213 452.71H652.669L652.669 325.191ZM667.128 339.68H652.672L652.672 467.199H667.128L667.128 339.68Z" fill="#FFC700"/>
<rect x="678.689" y="371.562" width="37.585" height="98.5372" fill="#FFC700"/>
<rect x="779.881" y="388.95" width="28.9116" height="81.1483" fill="#FFC700"/>
<path fill-rule="evenodd" clip-rule="evenodd" d="M889.749 162.888H875.293V212.156H889.749V162.888ZM857.946 183.177H875.293V232.446H857.946V212.158H840.599V197.667H857.946V183.177Z" fill="#FFC700"/>
<path fill-rule="evenodd" clip-rule="evenodd" d="M904.196 165.793H889.741V212.163H904.196V165.793ZM889.742 212.166H875.286V229.555H889.742V212.166Z" fill="#E25B00"/>
<rect x="889.743" y="261.434" width="14.4558" height="101.435" fill="#E25B00"/>
<path fill-rule="evenodd" clip-rule="evenodd" d="M638.207 165.794H652.663V183.182H667.118V339.683H652.662V325.191H638.207V310.7H652.662V183.183H638.207V165.794ZM684.467 339.683H667.12L667.12 452.711H684.467L684.467 339.683ZM701.812 229.556H716.267V371.566H701.814V371.567H684.467V357.076H701.812V229.556Z" fill="#E25B00"/>
<rect x="762.534" y="388.951" width="17.3469" height="81.1483" fill="#E25B00"/>
<path fill-rule="evenodd" clip-rule="evenodd" d="M826.139 212.167H843.486V212.17H857.94V232.452H872.396V244.044H857.94V423.735H843.485L843.485 226.658H826.139V212.167Z" fill="#E25B00"/>
<path fill-rule="evenodd" clip-rule="evenodd" d="M808.789 212.166H797.224V388.953H808.789V212.166ZM826.135 388.955H808.788L808.788 470.103H826.135L826.135 388.955Z" fill="#E25B00"/>
<path fill-rule="evenodd" clip-rule="evenodd" d="M730.726 165.803H748.073V183.192H730.726V165.803ZM748.072 183.192H762.528L762.528 380.267H748.072V183.192ZM748.069 371.568H716.267L716.267 473.003H748.069L748.069 371.568Z" fill="#E25B00"/>
<path fill-rule="evenodd" clip-rule="evenodd" d="M589.068 197.671H606.415V212.162H589.068V197.671ZM606.419 212.161H620.874V325.189H606.419V212.161ZM638.214 325.192H620.867L620.867 438.22H638.214L638.214 325.192Z" fill="#E25B00"/>
<path fill-rule="evenodd" clip-rule="evenodd" d="M542.8 229.557H557.256V244.047H542.8V229.557ZM557.259 244.045H571.715V296.212H557.259V244.045ZM589.057 296.216H571.711V394.753H589.057L589.057 296.216Z" fill="#E25B00"/>
<path d="M511 354.175H557.259V373.013H574.605V388.953H589.061V403.443H606.408V417.934H620.864V435.323H652.667V451.263H684.469V470.101H762.531V449.814H794.333V435.323H826.136V417.934H843.483V403.443H857.939V388.953H875.286V371.564H889.741V354.175H936V513.573H511V354.175Z" fill="#DC4200"/>
<path d="M522.565 513.573H924.435V626.601H522.565V513.573Z" fill="#DC4200"/>
<path d="M545.694 626.601H901.306V745.426H545.694V626.601Z" fill="#DC4200"/>
<path d="M545.694 745.426H649.776V765.713H638.211V786H557.259V765.713H545.694V745.426Z" fill="#DC4200"/>
<path d="M797.224 745.426H901.306V765.713H889.741V786H808.789V765.713H797.224V745.426Z" fill="#DC4200"/>
<path d="M565.002 627.011L555.434 627.865L554.733 636.94L545.867 637.882L544.5 647H431L429 639C429 639 428.041 634.998 428 635.011H421L418 625.011H411L408 615.011L416.002 567.669V508.328C418.524 507.887 421.014 507.386 424.437 506.785C424.837 504.261 425.277 501.436 425.798 498.011H522.701L547 486L555.002 498.011V506H557L565.002 518.011V627.011ZM465.887 537.876V596.654H514.563V537.876H465.887Z" fill="#F86C14"/>
<path d="M557 615L547.432 615.855L546.731 624.93L537.865 625.871L536.464 634.886L428 635C427.46 632.436 427.043 629.277 426.342 625.931C423.72 625.651 421.158 625.37 417.996 625.01C417.556 622.285 417.115 619.461 416.575 616.055L408 615V496.317C410.522 495.876 413.012 495.375 416.435 494.775C416.835 492.25 417.276 489.426 417.796 486H547V504.37L557 506V615ZM457.886 525.866V584.643H506.562V525.866H457.886Z" fill="#FFC700"/>
<path d="M337.773 593.828H288.997V652.645H337.833C338.153 650.101 338.514 647.276 338.934 643.971H381V632L388 643.971V682.875C385.558 683.195 382.266 683.576 378.823 684.037C378.523 686.882 378.223 689.706 377.863 693.112C374.72 693.352 371.898 693.573 368.736 693.813C368.436 697.259 368.175 700.103 367.915 703.068H265L262 691H245L242 681.5V671L235 670L232 661V574.255H248.227V553.982H377.442L381 552L388 563.999V602.653L339.174 602.903C338.774 600.278 338.333 597.474 337.773 593.848V593.828Z" fill="#F86C14"/>
<path d="M330.773 581.846H281.997V640.663H330.833C331.153 638.119 331.514 635.294 331.934 631.989H381V670.893C378.558 671.214 375.266 671.594 371.823 672.055C371.523 674.9 371.223 677.724 370.863 681.13C367.72 681.37 364.898 681.591 361.736 681.831C361.436 685.277 361.26 688.035 361 691H262L261.044 681.577L242 681.5V662C242 662 232 661 232 660.997V562.274C234.602 561.853 237.404 561.392 241.227 560.771V542H370.442C370.883 544.444 371.363 547.229 371.983 550.654C374.505 551.055 377.577 551.496 381 552.017V590.671L332.174 590.921C331.774 588.297 331.333 585.492 330.773 581.866V581.846Z" fill="#FFC700"/>
<path d="M723 703.943V753H645.872L642.256 738.284H633.821L630.205 724.793H621.769L618.154 712.529V616.868H598.872L596.462 608.283L595.256 603.378H586.821L582 589.887L591.641 587.433V570.263H626.591V507.716H656.719L677.205 493L686.846 507.716V555.547H713.359L723 570.263V616.999H688.171L688.051 703.943H705.526L713.359 689.227L723 703.943Z" fill="#F86C14"/>
<path d="M713.359 689.227V738.284H642.256L640.974 725.767C637.26 725.472 633.896 725.088 630.205 724.793C629.771 720.961 629.372 717.88 628.938 714.023C625.682 713.507 622.785 713.242 618.154 712.529V603.378H595.256L592.613 591.301C589.501 590.809 586.076 590.526 582 589.887V555.547H616.95V493H677.205V555.547H713.359V602.283H678.53L678.41 689.227H713.359Z" fill="#FFC700"/>
<path d="M723 703.943V753H645.872L642.256 738.284H633.821L630.205 724.793H621.769L618.154 712.529V616.868H598.872L596.462 608.283L595.256 603.378H586.821L582 589.887L591.641 587.433V570.263H626.591V507.716H656.719L677.205 493L686.846 507.716V555.547H713.359L723 570.263V616.999H688.171L688.051 703.943H705.526L713.359 689.227L723 703.943Z" fill="#F86C14"/>
<path d="M713.359 689.227V738.284H642.256L640.974 725.767C637.26 725.472 633.896 725.088 630.205 724.793C629.771 720.961 629.372 717.88 628.938 714.023C625.682 713.507 622.785 713.242 618.154 712.529V603.378H595.256L592.613 591.301C589.501 590.809 586.076 590.526 582 589.887V555.547H616.95V493H677.205V555.547H713.359V602.283H678.53L678.41 689.227H713.359Z" fill="#FFC700"/>
<path d="M914 672.022C911.138 672.282 908.106 672.523 904.663 672.823V691.035H885.029C884.608 694.821 884.308 697.646 883.948 700.911L781 701.005L778 689H770L767 679.006H760L757 669.006L765 652.56V623.101L774 622.005L775 613.005H853L855 603.005L864 602.005V593.005H815L814 602.026H760L757 589.006L765 573.339C767.662 572.818 770.824 572.237 774.487 571.536V553.005L871.669 553.451L896 540.006L904 554.006V560.006H906L914 572.998V672.022ZM814.937 661.725H863.993V642.934H814.937V661.725Z" fill="#F86C14"/>
<path d="M906 659.017C903.138 659.277 900.106 659.518 896.663 659.818V679.03H877.029L875.948 689H778L776 680L767 679L766 670L757 669.013V610.096L766 609L767 600H845L847 590L856 589V580H807L806 589.021H757V560.334C759.662 559.813 762.824 559.232 766.487 558.531V540.006L896.063 540V558.41C899.485 558.971 902.557 559.432 906 559.993V659.017ZM806.937 648.72H855.993V629.929H806.937V648.72Z" fill="#FFC700"/>
<path d="M1061 634.943V684H983.872L980.256 669.284H971.821L968.205 655.793H959.769L956.154 643.529V547.868H936.872L934.462 539.283L933.256 534.378H924.821L920 520.887L929.641 518.433V501.263H964.591V438.716H994.719L1015.21 424L1024.85 438.716V486.547H1051.36L1061 501.263V547.999H1026.17L1026.05 634.943H1043.53L1051.36 620.227L1061 634.943Z" fill="#F86C14"/>
<path d="M1051.36 620.227V669.284H980.256L978.974 656.767C975.26 656.472 971.896 656.088 968.205 655.793C967.771 651.961 967.372 648.88 966.938 645.023C963.682 644.507 960.785 644.242 956.154 643.529V534.378H933.256L930.613 522.301C927.501 521.809 924.076 521.526 920 520.887V486.547H954.95V424H1015.21V486.547H1051.36V533.283H1016.53L1016.41 620.227H1051.36Z" fill="#FFC700"/>
</g>
<defs>
<clipPath id="clip0_6673_4017">
<rect width="1440" height="984" fill="white"/>
</clipPath>
</defs>
</svg>
